<svg width="38" height="37" viewBox="0 0 38 37" fill="none" xmlns="http://www.w3.org/2000/svg">
<path d="M8.10175 25.6908C8.10175 25.6908 10.1062 25.0943 12.8411 22.3876C15.576 19.681 16.0703 18.131 19.9301 15.7799" fill="#EAE1D4"/>
<path d="M10.7485 26.5464C9.44645 27.3387 8.54177 27.6421 8.27202 27.7232L7.94371 23.6448C7.94371 23.6448 7.90796 23.6541 7.8403 23.6786C7.85293 23.6751 9.18167 23.1739 11.0924 21.2863C11.8626 20.5247 12.4469 19.8494 13.0112 19.1986C14.3439 17.6586 15.726 16.0657 18.8633 14.1565L20.9795 17.4377C18.8508 18.733 18.0649 19.6412 16.8733 21.0164C16.2549 21.7313 15.5518 22.5413 14.5904 23.4919C13.1352 24.9299 11.8095 25.9028 10.7473 26.5492L10.7485 26.5464Z" fill="#EAE1D4"/>
<path d="M34.2779 9.73515C34.2779 9.73515 32.8514 11.2285 29.1533 12.4404C25.4552 13.6522 23.8051 13.4084 19.9453 15.7595" fill="#EAE1D4"/>
<path d="M33.919 12.4252C32.8568 13.0716 31.3803 13.8061 29.4103 14.4504C28.1103 14.876 27.0522 15.1357 26.1212 15.3659C24.3275 15.8074 23.1433 16.0982 21.0146 17.3935L18.8984 14.1124C22.0357 12.2032 24.1131 11.6929 26.1222 11.1971C26.9713 10.9878 27.8518 10.7717 28.8933 10.4308C31.4732 9.58553 32.5173 8.64282 32.5282 8.63202C32.4759 8.68044 32.4517 8.70763 32.4517 8.70763L36.0865 10.7739C35.8958 10.973 35.2179 11.6327 33.9159 12.425L33.919 12.4252Z" fill="#EAE1D4"/>
<path d="M10.3121 3.85947C10.3121 3.85947 11.039 5.94145 14.3051 8.50914C17.5711 11.0768 19.4359 11.3878 22.2804 15.2235" fill="#EAE1D4"/>
<path d="M9.27389 6.8418C8.31155 5.54478 7.94098 4.6078 7.8418 4.32706L12.7592 3.38073C12.7592 3.38073 12.7478 3.34331 12.7178 3.27351C12.7222 3.28669 13.3335 4.65483 15.6199 6.45329C16.5424 7.17816 17.36 7.71388 18.1478 8.23155C20.012 9.45364 21.9403 10.7216 24.2591 13.8469L20.3125 16.6163C18.7392 14.4958 17.6398 13.7751 15.9751 12.6822C15.1097 12.1152 14.1291 11.47 12.9776 10.5652C11.2358 9.19561 10.0556 7.89903 9.27051 6.84093L9.27389 6.8418Z" fill="#EAE1D4"/>
<path d="M29.573 29.8443C29.573 29.8443 27.7714 28.5168 26.2966 24.6916C24.8217 20.8665 25.1062 19.0466 22.2617 15.2109" fill="#EAE1D4"/>
<path d="M26.3384 29.8602C25.5533 28.8021 24.6599 27.3075 23.8727 25.2648C23.3527 23.9169 23.034 22.8072 22.7517 21.8311C22.21 19.9502 21.8532 18.7083 20.2799 16.5878L24.2266 13.8184C26.5453 16.9436 27.1715 19.1221 27.7798 21.2288C28.0366 22.119 28.3016 23.0425 28.7182 24.1223C29.7509 26.7973 30.8933 27.7929 30.9063 27.8031C30.8477 27.7535 30.8147 27.7312 30.8147 27.7312L28.3412 31.9713C28.1001 31.7934 27.301 31.1538 26.3386 29.8568L26.3384 29.8602Z" fill="#EAE1D4"/>
</svg>
