<svg width="186" height="43" viewBox="0 0 186 43" fill="none" xmlns="http://www.w3.org/2000/svg">
<rect x="0.5" y="0.5" width="185" height="42" rx="3.5" stroke="#D5FF8B"/>
<path d="M16.5946 30V12.84H23.7226C25.2586 12.84 26.5066 13.272 27.3706 14.088C28.1626 14.808 28.6186 15.864 28.6186 17.16C28.6186 19.104 27.7306 20.28 26.0026 20.88V20.952C27.9706 21.504 29.3386 22.896 29.3386 25.176C29.3386 26.568 28.9066 27.696 28.0906 28.536C27.2026 29.448 25.8106 30 24.0346 30H16.5946ZM18.2026 28.536H23.9386C25.2586 28.536 26.2186 28.152 26.8426 27.552C27.3946 27 27.7066 26.208 27.7066 25.2C27.7066 23.016 26.1946 21.768 23.9386 21.768H18.2026V28.536ZM18.2026 20.376H23.6986C25.7866 20.376 26.9866 19.152 26.9866 17.28C26.9866 15.336 25.7386 14.256 23.7466 14.256H18.2026V20.376ZM31.3317 30V12.84H32.8197V30H31.3317ZM35.4327 30V17.592H36.9207V30H35.4327ZM35.4327 14.952V12.84H36.9207V14.952H35.4327ZM42.7274 30L38.3354 17.592H39.9194L42.5834 25.464C42.9914 26.664 43.5914 28.608 43.5914 28.608H43.6394C43.6394 28.608 44.2634 26.664 44.6714 25.464L47.4554 17.592H48.9674L44.4794 30H42.7274ZM57.3541 30.288C55.0501 30.288 53.2981 29.136 53.2981 26.832C53.2981 23.88 55.6021 23.28 58.4101 22.944C60.8581 22.656 61.7461 22.512 61.7461 21.264V21.024C61.7461 19.344 60.6901 18.528 58.7701 18.528C56.5621 18.528 55.4101 19.44 55.2901 21.288H53.8261C53.9941 18.888 55.5781 17.328 58.7701 17.328C61.4821 17.328 63.1621 18.456 63.1621 21.168V27.912C63.1621 28.656 63.4501 28.968 63.9781 28.992C64.1461 28.992 64.3141 28.944 64.5301 28.896H64.6021V29.976C64.3861 30.072 64.0741 30.168 63.5941 30.168C62.5141 30.168 61.8421 29.616 61.7701 28.416V28.152H61.6981C61.0021 29.136 59.7301 30.288 57.3541 30.288ZM57.6181 29.088C60.3301 29.088 61.7701 27.216 61.7701 25.512V23.28C60.9781 23.712 59.7541 23.928 58.5541 24.096C56.4661 24.384 54.8581 24.696 54.8581 26.832C54.8581 28.56 56.1541 29.088 57.6181 29.088ZM65.9707 30V17.592H67.4587V19.896H67.5067C68.2747 18.456 69.5707 17.496 71.2987 17.496C71.4907 17.496 71.6107 17.52 71.7067 17.544V19.008C70.8187 18.864 69.8347 19.056 69.0667 19.608C68.1067 20.328 67.4587 21.48 67.4587 22.944V30H65.9707ZM73.3535 30V17.592H74.8415V19.896H74.8895C75.6575 18.456 76.9535 17.496 78.6815 17.496C78.8735 17.496 78.9935 17.52 79.0895 17.544V19.008C78.2015 18.864 77.2175 19.056 76.4495 19.608C75.4895 20.328 74.8415 21.48 74.8415 22.944V30H73.3535ZM83.4869 30.288C81.1829 30.288 79.4309 29.136 79.4309 26.832C79.4309 23.88 81.7349 23.28 84.5429 22.944C86.9909 22.656 87.8789 22.512 87.8789 21.264V21.024C87.8789 19.344 86.8229 18.528 84.9029 18.528C82.6949 18.528 81.5429 19.44 81.4229 21.288H79.9589C80.1269 18.888 81.7109 17.328 84.9029 17.328C87.6149 17.328 89.2949 18.456 89.2949 21.168V27.912C89.2949 28.656 89.5829 28.968 90.1109 28.992C90.2789 28.992 90.4469 28.944 90.6629 28.896H90.7349V29.976C90.5189 30.072 90.2069 30.168 89.7269 30.168C88.6469 30.168 87.9749 29.616 87.9029 28.416V28.152H87.8309C87.1349 29.136 85.8629 30.288 83.4869 30.288ZM83.7509 29.088C86.4629 29.088 87.9029 27.216 87.9029 25.512V23.28C87.1109 23.712 85.8869 23.928 84.6869 24.096C82.5989 24.384 80.9909 24.696 80.9909 26.832C80.9909 28.56 82.2869 29.088 83.7509 29.088ZM92.1035 30V17.592H93.5915V19.488H93.6395C94.4795 18.24 95.8235 17.328 97.7915 17.328C100.095 17.328 101.751 18.696 101.751 21.192V30H100.263V21.336C100.263 19.464 99.1835 18.6 97.4315 18.6C95.3195 18.6 93.5915 20.088 93.5915 22.128V30H92.1035ZM108.998 34.344C105.95 34.344 104.246 32.952 104.03 31.104H105.47C105.734 32.544 107.15 33.12 108.95 33.12C111.59 33.12 112.838 31.752 112.838 29.568V27.6H112.766C111.854 28.992 110.702 29.76 108.83 29.76C105.566 29.76 103.502 27.216 103.502 23.568C103.502 19.536 105.95 17.328 108.83 17.328C110.75 17.328 111.95 18.168 112.766 19.512H112.838V17.592H114.302V29.52C114.302 30.912 113.894 32.04 113.15 32.856C112.214 33.84 110.846 34.344 108.998 34.344ZM108.902 28.512C111.662 28.512 112.934 26.52 112.934 23.544C112.934 20.616 111.638 18.576 108.926 18.576C106.478 18.576 105.038 20.568 105.038 23.592C105.038 26.424 106.286 28.512 108.902 28.512ZM116.639 30.36L115.991 29.76L117.431 28.128C116.615 27 116.159 25.488 116.159 23.808C116.159 20.112 118.343 17.304 121.919 17.304C123.503 17.304 124.823 17.88 125.783 18.816L127.151 17.28L127.823 17.88L126.359 19.512C127.199 20.64 127.631 22.128 127.631 23.808C127.631 27.504 125.495 30.312 121.919 30.312C120.311 30.312 118.991 29.76 118.031 28.8L116.639 30.36ZM118.439 27.024L124.847 19.848C124.151 19.032 123.167 18.552 121.919 18.552C119.135 18.552 117.695 20.904 117.695 23.808C117.695 25.032 117.935 26.136 118.439 27.024ZM121.919 29.064C124.679 29.064 126.119 26.712 126.119 23.808C126.119 22.608 125.879 21.48 125.375 20.592L118.943 27.768C119.663 28.584 120.647 29.064 121.919 29.064ZM129.51 30V17.592H130.998V19.896H131.046C131.814 18.456 133.11 17.496 134.838 17.496C135.03 17.496 135.15 17.52 135.246 17.544V19.008C134.358 18.864 133.374 19.056 132.606 19.608C131.646 20.328 130.998 21.48 130.998 22.944V30H129.51ZM140.574 30V12.84H142.062V19.488H142.11C142.95 18.24 144.294 17.328 146.262 17.328C148.566 17.328 150.222 18.696 150.222 21.192V30H148.734V21.336C148.734 19.464 147.654 18.6 145.902 18.6C143.79 18.6 142.062 20.088 142.062 22.128V30H140.574ZM157.755 30.312C154.035 30.312 151.971 27.528 151.971 23.808C151.971 20.088 154.203 17.304 157.635 17.304C161.619 17.304 162.987 20.592 162.963 24.072H153.507C153.579 26.856 154.923 29.04 157.755 29.04C159.819 29.04 160.899 27.936 161.379 26.256H162.819C162.291 28.704 160.539 30.312 157.755 30.312ZM153.531 22.896H161.403C161.331 20.448 160.179 18.528 157.635 18.528C155.115 18.528 153.795 20.424 153.531 22.896ZM164.807 30V17.592H166.295V19.896H166.343C167.111 18.456 168.407 17.496 170.135 17.496C170.327 17.496 170.447 17.52 170.543 17.544V19.008C169.655 18.864 168.671 19.056 167.903 19.608C166.943 20.328 166.295 21.48 166.295 22.944V30H164.807Z" fill="#D5FF8B"/>
</svg>
