<?xml version="1.0" encoding="UTF-8"?>
<svg id="Layer_2" data-name="Layer 2" xmlns="http://www.w3.org/2000/svg" viewBox="0 0 463.52 397.74">
  <defs>
    <style>
      .cls-1 {
        stroke-width: 10px;
      }

      .cls-1, .cls-2 {
        fill: none;
        stroke: #231f20;
        stroke-miterlimit: 10;
      }

      .cls-2 {
        stroke-width: 7px;
      }
    </style>
  </defs>
  <path class="cls-1" d="M440.2,171.75c67.63,106.55-64.27,232.91-194.58,220.09C113.37,378.82,5,285.04,5,153.29c0-32.19,6.43-62.88,18.09-90.9C29.32,47.41,66.18-7.93,69.48,7.78c104.77,499.57,167.98,108.58,228.1,222.54,114.16,216.41,118.07-97.28,142.63-58.58Z"/>
  <polygon class="cls-1" points="160.49 112.61 212.33 185.19 277.99 171.37 334.44 197.86 394.34 125.29 286.33 134.5 231.76 125.01 160.49 112.61"/>
  <polygon class="cls-1" points="286.33 61.93 246.59 127.59 277.41 132.95 315.04 132.05 286.33 61.93"/>
  <polyline class="cls-1" points="160.49 112.61 259.96 105.49 286.33 61.93 305.19 107.98 394.34 125.29"/>
  <polyline class="cls-2" points="212.33 185.19 277.41 132.95 334.44 197.86"/>
  <line class="cls-2" x1="286.33" y1="61.93" x2="277.41" y2="132.95"/>
</svg>