<svg width="129" height="113" viewBox="0 0 129 113" fill="none" xmlns="http://www.w3.org/2000/svg">
<path d="M74.4053 23.5735C71.4291 23.2627 71.761 19.399 73.3348 17.6895C54.5835 14.4688 37.2294 31.66 43.3477 50.6518L94.816 64.5688C103.429 59.435 105.511 46.5201 102.401 37.6191C101.737 35.7113 100.148 33.5732 99.1412 31.7726C98.8789 31.301 97.9635 30.4275 98.7611 30.0095C103.841 35.8989 105.061 42.4421 104.376 50.0945C103.771 56.8574 100.736 60.3406 96.3683 65.11L110.693 69.2363C112.074 71.2887 110.238 73.3733 110.275 75.5544C113.749 75.1739 125.049 76.4493 126.607 79.8576C129.316 85.7952 114.467 87.7833 112.952 89.2248C111.533 90.5806 112.352 94.8838 109.451 95.3982C106.881 95.6608 104.692 91.5827 102.754 90.318C99.1733 87.9709 94.9391 89.1766 91.0047 89.4928C92.8729 93.6995 94.1683 96.9469 88.8475 98.8868C96.2078 113.924 85.3949 113.833 75.5187 106.336C68.6403 101.116 63.9511 89.0426 53.2346 88.9247C47.1697 88.8551 50.3868 95.1142 48.7542 97.8365C47.5177 99.8943 32.7971 105.505 30.2331 105.596C27.6691 105.687 22.1395 103.662 21.5239 100.896C20.2713 95.275 29.3124 93.5441 29.7139 90.0983C30.0832 86.9044 24.6982 82.4727 26.47 77.1299C27.4763 74.0914 38.6372 71.98 31.4429 67.3929C28.9752 65.8174 22.5677 64.2526 19.1579 62.5431C16.7545 61.3374 10.3738 58.2614 10.1864 55.4319C9.94556 51.8576 14.4955 47.6509 17.2951 45.9789C21.3419 43.5567 36.2016 37.946 31.582 47.683L42.2879 50.3624C36.9992 34.4734 50.0817 17.8664 66.0869 16.5856C69.6787 16.2962 74.1323 18.2844 76.2789 15.5353C77.1139 16.9554 74.5766 17.6466 73.8593 18.4719C72.0447 20.5565 73.0136 21.6551 74.4 23.5682L74.4053 23.5735ZM56.6337 55.3087L38.8192 50.3785C37.6255 51.4128 38.8299 53.0633 38.5141 54.896C38.3909 55.6248 36.769 58.2399 36.9349 58.4061L40.1413 58.9527L37.4702 59.7458L40.4143 63.2237C41.3832 62.2055 42.6893 61.5571 42.5609 60.0084L56.2054 63.2237L55.1295 61.0909L56.7354 61.0801L55.7826 60.2924C55.9057 59.1242 55.5631 59.1456 56.7354 58.6794L55.6701 57.6022L57.2814 57.3343C56.8585 56.8145 56.8638 55.523 56.6283 55.3033L56.6337 55.3087ZM73.4365 69.0273C72.4248 66.8516 70.7279 62.0983 68.0247 61.8625C66.3974 61.7232 63.0465 65.7959 60.8571 65.7638L44.2417 61.2195C38.4284 63.7756 39.5846 69.4882 43.5511 73.2287C46.1687 75.6937 50.3547 76.6101 53.8662 77.1031C55.6006 77.3496 58.2449 76.7869 59.5992 77.2585C60.7019 77.639 61.0016 80.1309 62.9287 80.3988C64.6523 80.6399 66.2421 79.1234 67.5911 79.4128C68.287 79.5628 71.5469 81.9904 72.9761 82.6227C82.06 86.6579 91.722 87.1242 91.5454 74.4933L92.616 78.2445L99.564 76.101L73.4418 69.0273H73.4365ZM101.17 67.5268L81.3641 62.7039C82.1242 65.2761 80.4274 67.5858 79.223 69.6597C81.2678 68.6415 80.5772 69.9276 81.2357 70.1527C86.7599 72.0819 92.5731 73.293 98.1562 74.9649C100.115 74.6273 99.7728 68.9737 101.17 67.5268Z" fill="#D5FF8B" stroke="#D5FF8B" stroke-width="2" stroke-miterlimit="10"/>
<path d="M67.982 27.8606C62.5541 28.7823 55.2688 34.5163 54.5997 40.1913L49.8624 39.5804C48.2297 38.5997 51.8108 29.4146 53.8075 28.3965L50.3067 38.2728L53.2829 38.932C56.409 33.975 60.5307 28.9377 66.3707 27.2979L64.4598 23.0965L57.0085 26.2368C55.0065 26.269 58.2664 24.4738 58.3949 24.4041C59.6689 23.7289 63.8495 21.6604 64.9576 22.0087L67.9927 27.8445L67.982 27.8606Z" fill="#D5FF8B" stroke="#D5FF8B" stroke-width="0.5" stroke-miterlimit="10"/>
<path d="M78.538 3.9067C80.4169 5.49292 80.2188 9.20124 84.4315 10.0587L89.3937 10.7124C87.1776 10.5356 84.7206 11.1787 82.5741 10.3105C79.373 9.01904 79.0465 3.53694 74.6089 3.23684C72.0342 3.06 66.6706 5.60546 64.7703 7.49713C68.057 7.79723 71.1563 7.78115 73.7204 10.064C74.3092 10.5892 75.2138 10.6481 74.9355 11.7896C71.6648 8.62249 67.2273 9.82287 63.6997 7.76507C65.7927 3.67091 74.9837 0.905742 78.5326 3.91206L78.538 3.9067Z" fill="#D5FF8B" stroke="#D5FF8B" stroke-width="3" stroke-miterlimit="10"/>
<path d="M92.07 22.5126C91.6043 24.0613 93.36 23.4396 93.6758 24.6454L89.9342 23.8201L86.9847 27.8661C84.7311 21.6391 94.9017 22.3572 96.8287 18.965C98.274 16.4249 97.2034 13.44 95.2871 11.5216C96.5771 10.5248 98.0599 14.3993 98.274 15.5193C99.1465 20.0957 96.0472 21.7784 92.0753 22.5126H92.07Z" fill="#D5FF8B" stroke="#D5FF8B" stroke-width="2" stroke-miterlimit="10"/>
<path d="M85.6413 18.756C86.214 21.4729 83.013 21.8963 83.468 24.6132L81.3643 24.6454C80.9735 22.9413 82.5152 22.4965 83.195 21.3926C84.0354 20.0368 83.377 18.2255 85.6413 18.756Z" fill="#D5FF8B"/>
<path d="M69.5826 72.8803L68.2551 75.4472C66.1514 74.0914 64.6687 73.1054 62.0993 73.9521C61.8691 69.5739 67.404 73.9949 69.588 72.8857L69.5826 72.8803Z" fill="#D5FF8B"/>
</svg>
