<?xml version="1.0" encoding="UTF-8"?>
<svg id="Layer_1" data-name="Layer 1" xmlns="http://www.w3.org/2000/svg" viewBox="0 0 45.71 17.23">
  <defs>
    <style>
      .cls-1 {
        fill: none;
        stroke: #eae1d4;
        stroke-miterlimit: 10;
        stroke-width: .5px;
      }
    </style>
  </defs>
  <path class="cls-1" d="M34.43,16.95L44.97.68l-24.16,12.88,13.61,3.39ZM28.1,9.39L44.03.89l-18.76,6.09,2.83,2.41ZM12.08,16.71l21.33.25-12.94-3.22-8.4,2.98ZM21.84,12.74l6.03-3.22-6.02-5.14v8.36ZM20.37,13.39l1.18-8.92-5.85,6.03,4.67,2.89ZM21.58,12.87v-6.82s-.95,7.33-.95,7.33l.95-.5ZM11.43,16.67l8.75-3.1L1.2,1.81l10.23,14.86ZM15.48,10.37l4-4.13L1.5,1.71l13.98,8.66Z"/>
  <polygon class="cls-1" points="44.97 .68 34.43 16.95 20.81 13.56 44.97 .68"/>
  <polygon class="cls-1" points="44.03 .89 28.1 9.39 25.27 6.98 44.03 .89"/>
  <polygon class="cls-1" points="33.42 16.95 12.08 16.71 20.48 13.73 33.42 16.95"/>
  <polygon class="cls-1" points="27.86 9.52 21.84 12.74 21.84 4.39 27.86 9.52"/>
  <polygon class="cls-1" points="21.55 4.48 20.37 13.39 15.7 10.5 21.55 4.48"/>
  <polygon class="cls-1" points="21.59 6.05 21.58 12.87 20.63 13.38 21.59 6.05"/>
  <polygon class="cls-1" points="20.18 13.57 11.43 16.67 1.2 1.81 20.18 13.57"/>
  <polygon class="cls-1" points="19.49 6.24 15.48 10.37 1.5 1.71 19.49 6.24"/>
</svg>