<?xml version="1.0" encoding="UTF-8"?>
<svg id="Layer_1" xmlns="http://www.w3.org/2000/svg" version="1.1" viewBox="0 0 48.3 33.2">
  <!-- Generator: Adobe Illustrator 29.2.1, SVG Export Plug-In . SVG Version: 2.1.0 Build 116)  -->
  <defs>
    <style>
      .st0 {
        fill: #3962d8;
      }

      .st1 {
        fill: #eae1d4;
      }

      .st2 {
        fill: #ffe815;
      }

      .st3 {
        fill: none;
        stroke: #eae1d4;
        stroke-miterlimit: 10;
        stroke-width: .5px;
      }
    </style>
  </defs>
  <path class="st3" d="M35.7,32.8l10.5-16.3-24.2,12.9,13.6,3.4h0ZM29.4,25.2l15.9-8.5-18.8,6.1s2.8,2.4,2.8,2.4ZM13.4,32.6l21.3.2-12.9-3.2-8.4,3h0ZM23.1,28.6l6-3.2-6-5.1v8.4h0ZM21.7,29.2l1.2-8.9-5.9,6,4.7,2.9ZM22.9,28.7v-6.8l-1,7.3,1-.5h0ZM12.7,32.5l8.8-3.1L2.5,17.7s10.2,14.9,10.2,14.9ZM16.8,26.2l4-4.1L2.8,17.6l14,8.7Z"/>
  <polygon class="st3" points="46.3 16.5 35.7 32.8 22.1 29.4 46.3 16.5"/>
  <polygon class="st3" points="45.3 16.7 29.4 25.2 26.6 22.8 45.3 16.7"/>
  <polygon class="st3" points="34.7 32.8 13.4 32.6 21.8 29.6 34.7 32.8"/>
  <polygon class="st3" points="29.1 25.4 23.1 28.6 23.1 20.2 29.1 25.4"/>
  <polygon class="st3" points="22.8 20.3 21.7 29.2 17 26.3 22.8 20.3"/>
  <polygon class="st3" points="22.9 21.9 22.9 28.7 21.9 29.2 22.9 21.9"/>
  <polygon class="st3" points="21.5 29.4 12.7 32.5 2.5 17.7 21.5 29.4"/>
  <polygon class="st3" points="20.8 22.1 16.8 26.2 2.8 17.6 20.8 22.1"/>
  <g>
    <path class="st0" d="M16.3,2.4v7.5s-3.4-1.1-5.9,0-6.4,0-6.4,0V2.3s2.6,1.3,6.1,0c3.5-1.3,6.1.2,6.1.2h0Z"/>
    <path class="st2" d="M10.5,5.8s-3.2.9-6.5,0v1.2s2.3.8,6.5,0v2.9c-.1,0,.1-.3,1.1-.4v-2.8s2.1-1.2,4.7,0v-1.3s-2.6-1-4.6,0V1.9s-.7.1-1.1.3v3.7c0,0,0,0,0,0Z"/>
    <ellipse class="st1" cx="16.5" cy="2.1" rx=".9" ry=".6"/>
    <polygon class="st1" points="16.1 25.7 16.9 26.3 16.9 2 16.1 2 16.1 25.7"/>
  </g>
</svg>