<?xml version="1.0" encoding="UTF-8"?>
<svg id="Layer_1" data-name="Layer 1" xmlns="http://www.w3.org/2000/svg" viewBox="0 0 800 800">
  <defs>
    <style>
      .cls-1 {
        fill: #d5ff8b;
      }
    </style>
  </defs>
  <path class="cls-1" d="M16.8,43.28v713.45c0,14.62,11.85,26.47,26.47,26.47h713.45c14.62,0,26.47-11.85,26.47-26.47V43.28c0-14.62-11.85-26.47-26.47-26.47H43.28c-14.62,0-26.47,11.85-26.47,26.47ZM736.72,708.63h-242.77c-14.62,0-26.47-11.85-26.47-26.47v-2.72c0-14.62-11.85-26.47-26.47-26.47H63.28c-14.62,0-26.47-11.85-26.47-26.47v-297.61c0-14.62,11.85-26.47,26.47-26.47h15.56c14.62,0,26.47-11.85,26.47-26.47V116.22c0-14.62,11.85-26.47,26.47-26.47h306.2c14.62,0,26.47-11.85,26.47-26.47h0c0-14.62,11.85-26.47,26.47-26.47h245.8c14.62,0,26.47,11.85,26.47,26.47v618.88c0,14.62-11.85,26.47-26.47,26.47Z"/>
</svg>