<?xml version="1.0" encoding="UTF-8"?>
<svg id="Layer_1" xmlns="http://www.w3.org/2000/svg" version="1.1" viewBox="0 0 800 800">
  <!-- Generator: Adobe Illustrator 29.2.1, SVG Export Plug-In . SVG Version: 2.1.0 Build 116)  -->
  <defs>
    <style>
      .st0 {
        fill: #d5ff8b;
      }
    </style>
  </defs>
  <path class="st0" d="M16.8,44.8v710.5c0,15.4,12.5,28,28,28h710.5c15.4,0,28-12.5,28-28V44.8c0-15.4-12.5-28-28-28H44.8c-15.4,0-28,12.5-28,28ZM330.4,64.8h0c0,15.4,12.5,28,28,28h376.9c15.4,0,28,12.5,28,28v201.3c0,15.4-12.5,28-28,28h-34.5c-15.4,0-28,12.5-28,28v273.5c0,15.4-12.5,28-28,28h-180.6c-15.4,0-28,12.5-28,28v28c0,15.4-12.5,28-28,28H140.7c-15.4,0-28-12.5-28-28v-179.7c0-15.4-12.5-28-28-28h-20c-15.4,0-28-12.5-28-28V64.8c0-15.4,12.5-28,28-28h237.7c15.4,0,28,12.5,28,28Z"/>
  <path class="st0" d="M-848.9,40.8v718.4c0,13.3,10.7,24,24,24H-106.5c13.3,0,24-10.7,24-24V40.8c0-13.3-10.7-24-24-24h-718.4c-13.3,0-24,10.7-24,24ZM-804.9,266.4h81c13.3,0,24-10.7,24-24V111.9c0-13.3,10.7-24,24-24H-126.5c13.3,0,24,10.7,24,24v495.6c0,13.3-10.7,24-24,24h-289.9c-13.3,0-24,10.7-24,24h0c0,13.3-10.7,24-24,24h-141.9c-13.3,0-24,10.7-24,24v35.7c0,13.3-10.7,24-24,24h-150.5c-13.3,0-24-10.7-24-24v-448.8c0-13.3,10.7-24,24-24Z"/>
  <path class="st0" d="M-1699.5,43.3v713.4c0,14.6,11.9,26.5,26.5,26.5h713.4c14.6,0,26.5-11.9,26.5-26.5V43.3c0-14.6-11.9-26.5-26.5-26.5h-713.4c-14.6,0-26.5,11.9-26.5,26.5ZM-979.5,708.6h-242.8c-14.6,0-26.5-11.9-26.5-26.5v-2.7c0-14.6-11.9-26.5-26.5-26.5h-377.7c-14.6,0-26.5-11.9-26.5-26.5v-297.6c0-14.6,11.9-26.5,26.5-26.5h15.6c14.6,0,26.5-11.9,26.5-26.5V116.2c0-14.6,11.9-26.5,26.5-26.5h306.2c14.6,0,26.5-11.9,26.5-26.5h0c0-14.6,11.9-26.5,26.5-26.5h245.8c14.6,0,26.5,11.9,26.5,26.5v618.9c0,14.6-11.9,26.5-26.5,26.5Z"/>
</svg>