<?xml version="1.0" encoding="UTF-8"?>
<svg id="Layer_1" data-name="Layer 1" xmlns="http://www.w3.org/2000/svg" viewBox="0 0 800 800">
  <defs>
    <style>
      .cls-1 {
        fill: #d5ff8b;
      }
    </style>
  </defs>
  <path class="cls-1" d="M16.8,40.81v718.39c0,13.26,10.75,24,24,24h718.39c13.26,0,24-10.75,24-24V40.81c0-13.26-10.75-24-24-24H40.81c-13.26,0-24,10.75-24,24ZM60.81,266.36h81.02c13.26,0,24-10.75,24-24V111.86c0-13.26,10.75-24,24-24h549.36c13.26,0,24,10.75,24,24v495.62c0,13.26-10.75,24-24,24h-289.93c-13.26,0-24,10.75-24,24h0c0,13.26-10.75,24-24,24h-141.94c-13.26,0-24,10.75-24,24v35.7c0,13.26-10.75,24-24,24H60.81c-13.26,0-24-10.75-24-24v-448.83c0-13.26,10.75-24,24-24Z"/>
</svg>