<?xml version="1.0" encoding="UTF-8"?>
<svg id="Layer_1" data-name="Layer 1" xmlns="http://www.w3.org/2000/svg" viewBox="0 0 800 800">
  <defs>
    <style>
      .cls-1 {
        fill: #d5ff8b;
      }
    </style>
  </defs>
  <path class="cls-1" d="M16.8,44.76v710.48c0,15.44,12.52,27.96,27.96,27.96h710.48c15.44,0,27.96-12.52,27.96-27.96V44.76c0-15.44-12.52-27.96-27.96-27.96H44.76c-15.44,0-27.96,12.52-27.96,27.96ZM330.4,64.76h0c0,15.44,12.52,27.96,27.96,27.96h376.88c15.44,0,27.96,12.52,27.96,27.96v201.26c0,15.44-12.52,27.96-27.96,27.96h-34.54c-15.44,0-27.96,12.52-27.96,27.96v273.49c0,15.44-12.52,27.96-27.96,27.96h-180.59c-15.44,0-27.96,12.52-27.96,27.96v27.98c0,15.44-12.52,27.96-27.96,27.96H140.7c-15.44,0-27.96-12.52-27.96-27.96v-179.7c0-15.44-12.52-27.96-27.96-27.96h-20.02c-15.44,0-27.96-12.52-27.96-27.96V64.76c0-15.44,12.52-27.96,27.96-27.96h237.68c15.44,0,27.96,12.52,27.96,27.96Z"/>
</svg>