<svg width="26" height="26" viewBox="0 0 26 26" fill="none" xmlns="http://www.w3.org/2000/svg">
<path d="M2.42676 6.94205C2.42676 6.94205 3.81342 7.46205 6.41342 6.59539C9.01342 5.72872 9.88009 4.68872 13.0001 4.68872" fill="#EAE1D4"/>
<path d="M3.63653 9.00491C2.58266 9.00491 1.94306 8.79864 1.75586 8.72931L3.09399 5.15864C3.09399 5.15864 3.06973 5.14824 3.02119 5.13437C3.02986 5.13784 3.99013 5.39437 5.80839 4.78944C6.54159 4.54504 7.13439 4.27811 7.70639 4.02157C9.05839 3.41317 10.4589 2.78571 12.9983 2.78571V6.59904C11.2753 6.59904 10.478 6.95784 9.26986 7.50037C8.64239 7.78291 7.92999 8.10184 7.01479 8.40691C5.62986 8.86797 4.49453 9.00664 3.63479 9.00664L3.63653 9.00491Z" fill="#EAE1D4"/>
<path d="M23.5733 6.94199C23.5733 6.94199 22.1867 7.46199 19.5867 6.59533C16.9867 5.72866 16.12 4.68866 13 4.68866" fill="#EAE1D4"/>
<path d="M22.3635 9.00469C21.5037 9.00469 20.3701 8.86775 18.9835 8.40495C18.0683 8.09989 17.3559 7.77922 16.7284 7.49842C15.5203 6.95589 14.7229 6.59709 13 6.59709V2.78375C15.5393 2.78375 16.9381 3.41295 18.2919 4.01962C18.8639 4.27615 19.4567 4.54309 20.1899 4.78749C22.0064 5.39242 22.9667 5.13589 22.9771 5.13242C22.9285 5.14629 22.9043 5.15669 22.9043 5.15669L24.2424 8.72735C24.0569 8.79669 23.4156 9.00295 22.3617 9.00295L22.3635 9.00469Z" fill="#EAE1D4"/>
<path d="M2.42676 13.8753C2.42676 13.8753 3.81342 14.3953 6.41342 13.5287C9.01342 12.662 9.88009 11.622 13.0001 11.622" fill="#EAE1D4"/>
<path d="M3.63653 15.9382C2.58266 15.9382 1.94306 15.7319 1.75586 15.6626L3.09399 12.0919C3.09399 12.0919 3.06973 12.0815 3.02119 12.0677C3.02986 12.0711 3.99013 12.3277 5.80839 11.7227C6.54159 11.4783 7.13439 11.2114 7.70639 10.9549C9.05839 10.3465 10.4589 9.71899 12.9983 9.71899V13.5323C11.2753 13.5323 10.478 13.8911 9.26986 14.4337C8.64239 14.7162 7.92999 15.0351 7.01479 15.3402C5.62986 15.8013 4.49453 15.9399 3.63479 15.9399L3.63653 15.9382Z" fill="#EAE1D4"/>
<path d="M23.5733 13.8753C23.5733 13.8753 22.1867 14.3953 19.5867 13.5286C16.9867 12.6619 16.12 11.6219 13 11.6219" fill="#EAE1D4"/>
<path d="M22.3635 15.938C21.5037 15.938 20.3701 15.801 18.9835 15.3382C18.0683 15.0332 17.3559 14.7125 16.7284 14.4317C15.5203 13.8892 14.7229 13.5304 13 13.5304V9.71704C15.5393 9.71704 16.9381 10.3462 18.2919 10.9529C18.8639 11.2094 19.4567 11.4764 20.1899 11.7208C22.0064 12.3257 22.9667 12.0692 22.9771 12.0657C22.9285 12.0796 22.9043 12.09 22.9043 12.09L24.2424 15.6606C24.0569 15.73 23.4156 15.9362 22.3617 15.9362L22.3635 15.938Z" fill="#EAE1D4"/>
<path d="M2.42676 21.1554C2.42676 21.1554 3.81342 21.6754 6.41342 20.8087C9.01342 19.942 9.88009 18.902 13.0001 18.902" fill="#EAE1D4"/>
<path d="M3.63653 23.2182C2.58266 23.2182 1.94306 23.012 1.75586 22.9426L3.09399 19.372C3.09399 19.372 3.06973 19.3616 3.02119 19.3477C3.02986 19.3512 3.99013 19.6077 5.80839 19.0028C6.54159 18.7584 7.13439 18.4914 7.70639 18.2349C9.05839 17.6265 10.4589 16.999 12.9983 16.999V20.8124C11.2753 20.8124 10.478 21.1712 9.26986 21.7137C8.64239 21.9962 7.92999 22.3152 7.01479 22.6202C5.62986 23.0813 4.49453 23.22 3.63479 23.22L3.63653 23.2182Z" fill="#EAE1D4"/>
<path d="M23.5733 21.1553C23.5733 21.1553 22.1867 21.6753 19.5867 20.8086C16.9867 19.942 16.12 18.902 13 18.902" fill="#EAE1D4"/>
<path d="M22.3635 23.218C21.5037 23.218 20.3701 23.0811 18.9835 22.6183C18.0683 22.3132 17.3559 21.9925 16.7284 21.7117C15.5203 21.1692 14.7229 20.8104 13 20.8104V16.9971C15.5393 16.9971 16.9381 17.6263 18.2919 18.2329C18.8639 18.4895 19.4567 18.7564 20.1899 19.0008C22.0064 19.6057 22.9667 19.3492 22.9771 19.3457C22.9285 19.3596 22.9043 19.37 22.9043 19.37L24.2424 22.9407C24.0569 23.01 23.4156 23.2163 22.3617 23.2163L22.3635 23.218Z" fill="#EAE1D4"/>
</svg>
