<?xml version="1.0" encoding="UTF-8"?>
<svg id="Lag_3" data-name="Lag 3" xmlns="http://www.w3.org/2000/svg" viewBox="0 0 572.85 424.44">
  <defs>
    <style>
      .cls-1 {
        fill: none;
        stroke: #eae1d4;
        stroke-miterlimit: 10;
      }
    </style>
  </defs>
  <rect class="cls-1" x="109.16" y="405.24" width="17.85" height="10.34"/>
  <rect class="cls-1" x="149.27" y="405.24" width="8.74" height="10.34"/>
  <rect class="cls-1" x="193.75" y="405.24" width="16.35" height="10.34"/>
  <g>
    <path class="cls-1" d="M137.28,342.2v-36.18s-4.15-2.37,0-9.49c4.15-7.12,11.27-15.13,11.27-15.13v-7.41s-5.04-7.71,5.04-11.27c0,0,9.49,2.67,5.34,12.46l1.05,6.82s18.52,18.98,11.7,23.43v36.78h-34.4Z"/>
    <path class="cls-1" d="M204.09,342.62v-36.18s-4.15-2.37,0-9.49c4.15-7.12,11.27-15.13,11.27-15.13v-7.41s-5.04-7.71,5.04-11.27c0,0,9.49,2.67,5.34,12.46l1.05,6.82s18.52,18.98,11.7,23.43v36.78h-34.4Z"/>
    <path class="cls-1" d="M444.04,342.54v-42.33s-2.86-2.78,0-11.1,7.77-17.69,7.77-17.69v-8.67s-3.48-9.02,3.48-13.18c0,0,6.55,3.12,3.68,14.57l.72,7.98s12.78,22.2,8.07,27.41v43.02h-23.73Z"/>
    <path class="cls-1" d="M477.32,342.54v-42.33s-2.86-2.78,0-11.1c2.86-8.33,7.77-17.69,7.77-17.69v-8.67s-3.48-9.02,3.48-13.18c0,0,6.55,3.12,3.68,14.57l.72,7.98s12.78,22.2,8.07,27.41v43.02h-23.73Z"/>
    <path class="cls-1" d="M510.09,342.54v-42.33s-2.86-2.78,0-11.1,7.77-17.69,7.77-17.69v-8.67s-3.48-9.02,3.48-13.18c0,0,6.55,3.12,3.68,14.57l.72,7.98s12.78,22.2,8.07,27.41v43.02h-23.73Z"/>
    <path class="cls-1" d="M65.87,345.3v-36.18s-4.15-2.37,0-9.49c4.15-7.12,11.27-15.13,11.27-15.13v-7.41s-5.04-7.71,5.04-11.27c0,0,9.49,2.67,5.34,12.46l1.05,6.82s18.52,18.98,11.7,23.43v36.78h-34.4Z"/>
    <path class="cls-1" d="M100.65,345.3v-36.18s-2.08-2.37,0-9.49c2.08-7.12,5.63-15.13,5.63-15.13v-7.41s-2.52-7.71,2.52-11.27c0,0,4.75,2.67,2.67,12.46l.53,6.82s9.26,18.98,5.85,23.43v3.07"/>
    <line class="cls-1" x1="136.61" y1="274.83" x2="100.65" y2="345.3"/>
    <path class="cls-1" d="M135.43,260.65v14.18-14.18Z"/>
    <polyline class="cls-1" points="115.72 293.83 124.66 276.2 124.66 260.65 135.43 260.65"/>
    <line class="cls-1" x1="135.43" y1="274.83" x2="148.55" y2="274.83"/>
    <line class="cls-1" x1="158.93" y1="275.17" x2="215.36" y2="275.17"/>
    <path class="cls-1" d="M179.4,272.7v-6.87h7.74v-25.13l1.93-3.97v-18.61s1.49-12.4,8.43-17.61v-6.7l3.23-2.48s-1.45-19.04,1.51-27.13c2.96-8.09,2.21,25.89,2.21,25.89l2.98,3.23v6.95s8.19,6.1,9.18,17.56v19.15l2.98,4.71.81,21.46"/>
    <polyline class="cls-1" points="225.74 275.6 296.16 274.83 296.16 342.2 238.49 342.62 171.68 342.2 102.23 342.2"/>
    <path class="cls-1" d="M184.85,275.17s8.35,15,4.06,32.16l-17.23,34.87"/>
    <line class="cls-1" x1="171.68" y1="307.78" x2="188.91" y2="307.33"/>
    <path class="cls-1" d="M253.71,275.29s6.78,20.07,2.26,32.04l-17.48,35.29"/>
    <line class="cls-1" x1="238.49" y1="307.78" x2="255.97" y2="307.33"/>
    <path class="cls-1" d="M296.16,342.2s2.42.44,0,4.88v13.47l-232.14-.5s-2.96-2.08,0-5.23c2.96-3.15,1.85-9.52,1.85-9.52"/>
    <path class="cls-1" d="M85.71,267.74v-7.09l5.94-3.46-2.97-3.93v-10.19h-11.36l.67-14.03,6.5-6.51s-9.97-8.19-11.95-30.88c-1.99-22.69-6.81-14.47-6.81-14.47l-4.26-21.56s3.4-13.05-3.97-18.16l-1.42-12.48-4.26-5.67s4.26-2.55,0-8.51l-1.42-31.77-1.42,30.64s-7.09,5.11,0,10.21l-5.39,5.39,1.13,11.35s-7.66,3.12-6.24,18.16l-3.69,22.98s-10.78-1.7-8.23,7.66-9.93,36.31-9.93,36.31l6.81,9.93-.28,10.21h-12.2v10.21l-4.54,1.13v3.69l6.52,5.83v152.74l546.64.57v-130.21l3.12-3.69,3.69-.28v-4.54h-4.54v-10.78l-6.24-.28v-14.47l-3.4-.28.57-29.22s1.13-5.96-6.81-13.9c0,0,2.84-9.64-6.24-16.17l-.57-21.84-.96,21.46s-10.4,5.52-6.7,17.02c0,0-6.22,3.25-6.49,12.08s.54,30.23.54,30.23l-2.01.34"/>
    <line class="cls-1" x1="515.88" y1="263.88" x2="492.26" y2="264.13"/>
    <line class="cls-1" x1="485.1" y1="264.13" x2="458.98" y2="264.13"/>
    <polyline class="cls-1" points="451.82 263.88 434.64 263.88 434.64 346.29 434.64 361.69 548.98 361.69 552.78 357.29 552.78 346.69 435.21 346.42"/>
    <line class="cls-1" x1="468.81" y1="292.3" x2="476.43" y2="292.3"/>
    <line class="cls-1" x1="502.1" y1="292.3" x2="509.2" y2="292.3"/>
    <line class="cls-1" x1="502.1" y1="325.37" x2="510.09" y2="338.87"/>
    <line class="cls-1" x1="467.77" y1="323.04" x2="476.43" y2="338.87"/>
    <line class="cls-1" x1="434.64" y1="323.04" x2="444.04" y2="338.87"/>
    <line class="cls-1" x1="559.6" y1="285.82" x2="532.34" y2="285.82"/>
    <line class="cls-1" x1="561.87" y1="277.31" x2="528.52" y2="277.31"/>
    <line class="cls-1" x1="552.23" y1="251.5" x2="525.56" y2="251.16"/>
    <line class="cls-1" x1="552.79" y1="222.28" x2="525" y2="222.28"/>
    <line class="cls-1" x1="545.99" y1="208.38" x2="531.52" y2="208.85"/>
    <line class="cls-1" x1="12.96" y1="262.72" x2="85.71" y2="263.14"/>
    <line class="cls-1" x1="88.68" y1="253.26" x2="10.98" y2="252.06"/>
    <line class="cls-1" x1="23.17" y1="241.85" x2="77.32" y2="243.07"/>
    <path class="cls-1" d="M84.49,222.52s-57.95,4.46-67.84-.81"/>
    <path class="cls-1" d="M26.58,185.4s25.76,3.7,45.23,0"/>
    <path class="cls-1" d="M38.33,151.89s8.47,2.9,23.77,0"/>
    <path class="cls-1" d="M189.08,218.12s15.35,3.45,27.54-.3"/>
    <path class="cls-1" d="M189.08,236.72s14.47,5.62,27.54.25"/>
    <line class="cls-1" x1="34.76" y1="262.72" x2="34.76" y2="415.48"/>
    <polyline class="cls-1" points="65.05 415.48 64.68 395.27 64.02 360.05"/>
    <line class="cls-1" x1="559.6" y1="393.48" x2="64.68" y2="395.27"/>
    <path class="cls-1" d="M434.64,272.85h-44.08l-94.4-1.43s-15.35-1.18-12.7-5.09l1.83-1.61,5.44,1.11,99.84,1.87v148.14"/>
    <polyline class="cls-1" points="296.16 264.73 297.23 258.46 292.85 252.45 389.32 252.45 438.29 252.45 434.64 257.63 434.64 263.88 390.56 267.71 390.21 253.07"/>
    <path class="cls-1" d="M412.49,249.56v-6.9h-11.54v-12.9l5.77-8.15s-12.79-8.83-11.88-12.67c.91-3.85,13.13-12.67-2.72-34.4,0,0,11.54-8.6,0-23.09s-2.26-35.53-2.26-35.53l-5.21-6.79s7.92-8.15,0-16.75l-.91-21.73-2.26-4.3s2.26-1.58-2.04-11.32-3.39-47.08-3.39-47.08l-3.39,47.08s-4.75,4.53-2.26,12.22l-2.94,3.17v21.05s-8.37,4.53-1.13,19.24l-5.66,4.53s6.11,21.73-1.36,37.34c-7.47,15.62,1.13,21.28,1.13,21.28,0,0-18.32,20.37-4.18,36.21,0,0-2.84,8.6-11.21,12l6.56,9.28.23,21.11s2.94-21.33-16.97-27.22l-2.04-6.79-2.04,6.34s-19.24,1.25-16.52,27.67"/>
    <path class="cls-1" d="M360.43,173.85s12.28,4.62,31.69.68"/>
    <path class="cls-1" d="M360.66,115.23s12.27,6.02,29.2.68"/>
    <path class="cls-1" d="M366.32,110.71s16.09,1.77,18.33-1.58"/>
    <path class="cls-1" d="M367.45,91.47s2.7,4.29,17.2.91"/>
    <path class="cls-1" d="M367.45,70.42s2.2,5.04,16.3.23"/>
    <path class="cls-1" d="M356.25,210.06s26.63,4.05,38.58-1.13"/>
    <path class="cls-1" d="M345.04,222.06s36.34,5.3,61.68-.45"/>
    <path class="cls-1" d="M351.63,233.5s33.47,3.68,49.32-1.58"/>
    <rect class="cls-1" x="325.01" y="296.05" width="5.8" height="8.7"/>
    <rect class="cls-1" x="325.01" y="343.66" width="5.8" height="7.72"/>
    <rect class="cls-1" x="355.87" y="296.05" width="5.8" height="8.7"/>
    <rect class="cls-1" x="403.57" y="296.05" width="2.99" height="8.7"/>
    <rect class="cls-1" x="417.82" y="296.05" width="3.15" height="8.7"/>
    <rect class="cls-1" x="403.57" y="342.54" width="2.99" height="8.84"/>
    <rect class="cls-1" x="417.82" y="342.54" width="3.15" height="8.84"/>
    <rect class="cls-1" x="419.4" y="376.58" width="3.26" height="12.53"/>
    <rect class="cls-1" x="355.87" y="343.66" width="5.8" height="7.72"/>
    <rect class="cls-1" x="350.45" y="377.33" width="6.41" height="11.79"/>
    <rect class="cls-1" x="444.04" y="366.29" width="7.8" height="27.19"/>
    <rect class="cls-1" x="463.06" y="366.29" width="7.48" height="27.19"/>
    <rect class="cls-1" x="481.21" y="366.29" width="7.86" height="27.19"/>
    <rect class="cls-1" x="499.54" y="366.29" width="6.55" height="27.19"/>
    <rect class="cls-1" x="517.69" y="366.29" width="7.48" height="27.19"/>
    <rect class="cls-1" x="549.95" y="387.62" width="5.42" height="15.29"/>
    <rect class="cls-1" x="550.65" y="369.41" width="4.73" height="7.51"/>
    <rect class="cls-1" x="549.95" y="315.89" width="5.42" height="10.98"/>
    <rect class="cls-1" x="549.95" y="286.42" width="5.42" height="11.68"/>
    <rect class="cls-1" x="520.48" y="276.69" width="2.92" height="11.26"/>
    <rect class="cls-1" x="517" y="324.37" width="3.48" height="12.23"/>
    <rect class="cls-1" x="523.4" y="324.37" width="3.34" height="12.23"/>
    <rect class="cls-1" x="517" y="296.05" width="3.48" height="8.58"/>
    <rect class="cls-1" x="523.4" y="296.05" width="3.34" height="8.58"/>
    <rect class="cls-1" x="528.52" y="230.68" width="3.83" height="12.23"/>
    <rect class="cls-1" x="536.61" y="230.12" width="5.28" height="12.79"/>
    <rect class="cls-1" x="545.99" y="230.12" width="3.97" height="12.79"/>
    <rect class="cls-1" x="487.26" y="277.31" width="3.89" height="10.64"/>
    <rect class="cls-1" x="484.34" y="323.04" width="2.92" height="13.57"/>
    <rect class="cls-1" x="490.45" y="323.04" width="3.26" height="13.57"/>
    <rect class="cls-1" x="484.34" y="296.05" width="2.92" height="8.58"/>
    <rect class="cls-1" x="490.45" y="296.05" width="3.26" height="8.58"/>
    <rect class="cls-1" x="455.79" y="277.31" width="2.13" height="10.64"/>
    <rect class="cls-1" x="451.84" y="324.37" width="3.03" height="12.23"/>
    <rect class="cls-1" x="458.98" y="324.37" width="2.98" height="12.23"/>
    <rect class="cls-1" x="457.92" y="294.9" width="4.03" height="9.73"/>
    <rect class="cls-1" x="451.84" y="294.21" width="3.03" height="10.43"/>
    <rect class="cls-1" x="109.16" y="367.64" width="16.41" height="25.84"/>
    <rect class="cls-1" x="149.27" y="367.64" width="8.74" height="26.74"/>
    <rect class="cls-1" x="162.95" y="367.64" width="8.73" height="25.84"/>
    <rect class="cls-1" x="193.75" y="367.64" width="16.35" height="26.74"/>
    <rect class="cls-1" x="233.67" y="367.64" width="15.59" height="25.84"/>
    <rect class="cls-1" x="272.45" y="367.64" width="15.59" height="25.84"/>
    <rect class="cls-1" x="77.23" y="364.74" width="16.1" height="9.79"/>
    <rect class="cls-1" x="86.02" y="334.7" width="8.13" height="10.6"/>
    <rect class="cls-1" x="75.57" y="311.6" width="3.32" height="6.17"/>
    <rect class="cls-1" x="73.74" y="332.71" width="3.49" height="7.29"/>
    <rect class="cls-1" x="81.87" y="293.83" width="6.31" height="11.74"/>
    <rect class="cls-1" x="150.42" y="291.71" width="6.8" height="10.75"/>
    <rect class="cls-1" x="142.95" y="328.06" width="7.47" height="13.44"/>
    <rect class="cls-1" x="156.56" y="327.07" width="7.14" height="14.44"/>
    <rect class="cls-1" x="155.73" y="310.07" width="7.97" height="10.03"/>
    <rect class="cls-1" x="142.95" y="310.07" width="7.47" height="10.03"/>
    <rect class="cls-1" x="222.78" y="327.07" width="7.8" height="14.44"/>
    <rect class="cls-1" x="210.1" y="327.07" width="7.21" height="14.44"/>
    <rect class="cls-1" x="209.34" y="310.07" width="7.97" height="10.03"/>
    <rect class="cls-1" x="222.78" y="310.07" width="7.8" height="11.02"/>
    <rect class="cls-1" x="217.31" y="291.71" width="5.48" height="10.75"/>
    <rect class="cls-1" x="18.31" y="371.49" width="4.44" height="10.69"/>
    <rect class="cls-1" x="25.71" y="371.49" width="4.94" height="10.69"/>
    <rect class="cls-1" x="41.35" y="373.46" width="6.75" height="8.72"/>
    <rect class="cls-1" x="52.2" y="373.46" width="6.91" height="8.72"/>
    <rect class="cls-1" x="18.31" y="342.2" width="4.44" height="14.32"/>
    <rect class="cls-1" x="25.71" y="341.5" width="4.94" height="15.01"/>
    <rect class="cls-1" x="41.35" y="342.62" width="6.75" height="13.89"/>
    <rect class="cls-1" x="52.2" y="342.62" width="6.91" height="13.89"/>
    <rect class="cls-1" x="52.2" y="308.73" width="6.91" height="13.24"/>
    <rect class="cls-1" x="41.35" y="307.49" width="6.75" height="14.48"/>
    <rect class="cls-1" x="25.71" y="307.49" width="5.76" height="14.48"/>
    <rect class="cls-1" x="18.31" y="307.49" width="4.44" height="14.48"/>
    <rect class="cls-1" x="18.31" y="271.12" width="4.44" height="15.79"/>
    <rect class="cls-1" x="25.71" y="271.95" width="5.76" height="14.97"/>
    <rect class="cls-1" x="41.35" y="271.95" width="6.09" height="14.97"/>
    <rect class="cls-1" x="52.2" y="271.95" width="6.91" height="14.97"/>
    <line class="cls-1" x1="67.93" y1="263.14" x2="67.93" y2="296.05"/>
    <line class="cls-1" x1="88.17" y1="282.17" x2="106.29" y2="282.21"/>
  </g>
</svg>