<?xml version="1.0" encoding="UTF-8"?>
<svg id="Layer_1" xmlns="http://www.w3.org/2000/svg" xmlns:xlink="http://www.w3.org/1999/xlink" version="1.1" viewBox="0 0 100 100">
  <!-- Generator: Adobe Illustrator 29.2.1, SVG Export Plug-In . SVG Version: 2.1.0 Build 116)  -->
  <defs>
    <style>
      .st0 {
        fill: #28282b;
      }
    </style>
  </defs>
  <path class="st0" d="M61,28.1h7.8c.9,0,1.6-.7,1.6-1.6v-10.5c0-.8-.6-1.5-1.4-1.6-2.5-.2-7.4-.4-10.9-.4-9.6,0-15.9,5.8-15.9,16.2v10.4h-11c-.9,0-1.6.7-1.6,1.6v11c0,.9.7,1.6,1.6,1.6h11v29.7c0,.9.7,1.6,1.6,1.6h11c.9,0,1.6-.7,1.6-1.6v-29.7h11.3c.8,0,1.5-.6,1.6-1.4l1.2-11c.1-.9-.6-1.7-1.6-1.7h-12.5v-7.8c0-2.6,2.1-4.7,4.7-4.7Z"/>
</svg>