<?xml version="1.0" encoding="UTF-8"?>
<svg id="Layer_1" data-name="Layer 1" xmlns="http://www.w3.org/2000/svg" viewBox="0 0 54.88 102.54">
  <defs>
    <style>
      .cls-1 {
        fill: #3962d8;
      }

      .cls-2 {
        fill: #eae1d4;
      }

      .cls-3 {
        fill: #ffe815;
      }
    </style>
  </defs>
  <path class="cls-1" d="M50.67,4.12v30.96s-14.04-4.5-24.36,0-26.31,0-26.31,0V3.49s10.81,5.56,25.33,0,25.33.63,25.33.63Z"/>
  <path class="cls-3" d="M26.73,18.16s-13.14,3.84-26.73,0v4.85s9.54,3.47,26.73,0l-.42,12.08s1.03-1.05,5.02-1.5v-11.41s8.63-4.75,19.34,0v-5.21s-10.78-4.21-19.19,0l.05-15.24s-2.78.54-4.49,1.15l-.32,15.28Z"/>
  <ellipse class="cls-2" cx="51.19" cy="2.66" rx="3.69" ry="2.66"/>
  <polygon class="cls-2" points="49.56 99.94 52.82 102.54 52.82 2.43 49.56 2.43 49.56 99.94"/>
</svg>