<svg width="19" height="25" viewBox="0 0 19 25" fill="none" xmlns="http://www.w3.org/2000/svg">
<path d="M17.8206 13.0008C17.755 12.9779 17.6909 12.9523 17.6267 12.9268C17.6703 12.9439 17.5204 12.9224 17.6209 12.925C17.5372 12.9228 17.4596 12.9038 17.3917 12.8721V23.3385L9.85905 16.7361C9.658 16.5599 9.34303 16.5599 9.14164 16.7361L1.60899 23.3385V1H1V23.5252C1 23.7178 1.12557 23.89 1.32045 23.9636C1.38461 23.9881 1.45186 23.9997 1.51842 23.9997C1.64982 23.9997 1.77883 23.9541 1.87729 23.8681L9.50017 17.1865L17.1231 23.8681C17.2716 23.9983 17.4902 24.0358 17.6799 23.964C17.8744 23.8903 18 23.7182 18 23.5256V13.0585C17.9396 13.0402 17.8796 13.022 17.8202 13.0012L17.8206 13.0008Z" fill="#EAE1D4" stroke="#EAE1D4"/>
<path d="M18 6H17.3907V3.05979C17.3907 2.22701 16.6722 1.54957 15.7893 1.54957H1V1H15.7893C17.0083 1 17.9997 1.92401 17.9997 3.05979V6H18Z" fill="#EAE1D4" stroke="#EAE1D4"/>
<path d="M17.9997 12.8937C17.9993 12.8875 17.999 12.8812 17.999 12.8749C17.9329 12.8546 17.8669 12.8343 17.8018 12.8107L17.5282 12.7258C17.4729 12.717 17.421 12.7011 17.3739 12.6779L16.319 12.3506L13.3872 16.203L13.4872 11.4716L8.84642 10.031L13.5499 8.50996L13.6503 3.76052L16.4309 7.57823L17.2697 7.30701C17.3065 7.28598 17.3459 7.26864 17.3883 7.25609C17.5865 7.19926 17.7732 7.11218 17.9683 7.04613C17.9683 7.04539 17.9683 7.04428 17.968 7.04354C17.9619 7.00074 17.9663 6.95904 17.9778 6.91919C17.9754 6.77675 17.9771 6.63432 17.9778 6.49151L16.6689 6.91476L13.0892 2L12.9598 8.11439L7 10.0417L12.8806 11.8672L12.7509 18L16.5516 13.0066L17.9781 13.4494C17.9906 13.2646 17.9747 13.0712 18 12.8937H17.9997Z" fill="#EAE1D4" stroke="#EAE1D4"/>
</svg>
