<?xml version="1.0" encoding="UTF-8"?>
<svg id="Layer_1" xmlns="http://www.w3.org/2000/svg" version="1.1" viewBox="0 0 104 104">
  <!-- Generator: Adobe Illustrator 29.2.1, SVG Export Plug-In . SVG Version: 2.1.0 Build 116)  -->
  <defs>
    <style>
      .st0 {
        fill: #28282b;
        stroke: #28282b;
        stroke-miterlimit: 10;
        stroke-width: 2px;
      }
    </style>
  </defs>
  <path class="st0" d="M34.9,11.3c-13,0-23.6,10.6-23.6,23.6v34.2c0,13,10.6,23.6,23.6,23.6h34.2c13,0,23.6-10.6,23.6-23.6v-34.2c0-13-10.6-23.6-23.6-23.6h-34.2ZM34.9,17.5h34.2c9.6,0,17.4,7.7,17.4,17.4v34.2c0,9.6-7.7,17.4-17.4,17.4h-34.2c-9.6,0-17.4-7.7-17.4-17.4v-34.2c0-9.6,7.7-17.4,17.4-17.4ZM75.5,23.8c-2.6,0-4.7,2.1-4.7,4.7s2.1,4.7,4.7,4.7,4.7-2.1,4.7-4.7-2.1-4.7-4.7-4.7ZM52,30.1c-12.1,0-21.9,9.9-21.9,21.9s9.9,21.9,21.9,21.9,21.9-9.9,21.9-21.9-9.9-21.9-21.9-21.9ZM52,36.3c8.7,0,15.7,7,15.7,15.7s-7,15.7-15.7,15.7-15.7-7-15.7-15.7,7-15.7,15.7-15.7Z"/>
</svg>