<svg width="414" height="366" viewBox="0 0 414 366" fill="none" xmlns="http://www.w3.org/2000/svg">
<g clip-path="url(#clip0_721_89)">
<path d="M238.78 77.035C229.229 76.0193 230.294 63.3932 235.344 57.8069C175.168 47.2822 119.476 103.461 139.111 165.523L304.281 211.002C331.922 194.225 338.604 152.021 328.623 122.934C326.493 116.7 321.391 109.712 318.162 103.828C317.32 102.287 314.382 99.4328 316.942 98.0669C333.244 117.313 337.161 138.695 334.962 163.702C333.021 185.802 323.281 197.185 309.263 212.77L355.233 226.254C359.665 232.962 353.773 239.774 353.893 246.901C365.042 245.658 401.305 249.826 406.304 260.963C414.996 280.366 367.343 286.863 362.482 291.574C357.93 296.005 360.558 310.067 351.247 311.748C343.002 312.606 335.976 299.279 329.757 295.146C318.265 287.476 304.677 291.416 292.05 292.45C298.046 306.197 302.203 316.809 285.128 323.148C308.748 372.287 274.047 371.989 242.353 347.49C220.279 330.433 205.231 290.979 170.839 290.593C151.376 290.366 161.701 310.82 156.461 319.716C152.493 326.44 105.252 344.775 97.0238 345.073C88.7953 345.371 71.05 338.751 69.0745 329.715C65.0548 311.345 94.0691 305.689 95.3575 294.429C96.5428 283.991 79.2613 269.509 84.9474 252.05C88.1769 242.12 123.994 235.221 100.906 220.23C92.9869 215.082 72.4243 209.968 61.4817 204.382C53.7685 200.442 33.2919 190.39 32.6906 181.144C31.9176 169.463 46.5193 155.716 55.5036 150.253C68.4905 142.337 116.178 124.002 101.353 155.821L135.71 164.577C118.737 112.654 160.721 58.3848 212.085 54.1994C223.612 53.2538 237.904 59.7507 244.793 50.7671C247.472 55.4078 239.33 57.6668 237.028 60.3636C231.204 67.1758 234.314 70.7657 238.763 77.0175L238.78 77.035ZM181.748 180.741L124.578 164.63C120.747 168.01 124.612 173.403 123.599 179.392C123.204 181.774 117.999 190.32 118.531 190.863L128.821 192.649L120.249 195.241L129.697 206.606C132.806 203.279 136.998 201.16 136.586 196.099L180.374 206.606L176.921 199.636L182.074 199.601L179.016 197.027C179.412 193.209 178.312 193.279 182.074 191.756L178.656 188.236L183.826 187.36C182.469 185.662 182.486 181.441 181.731 180.723L181.748 180.741ZM235.671 225.571C232.424 218.462 226.979 202.929 218.303 202.158C213.081 201.703 202.328 215.012 195.302 214.907L141.98 200.057C123.324 208.41 127.035 227.078 139.764 239.301C148.164 247.356 161.597 250.351 172.867 251.962C178.432 252.768 186.918 250.929 191.265 252.47C194.803 253.713 195.765 261.856 201.95 262.732C207.481 263.52 212.583 258.564 216.912 259.51C219.145 260 229.607 267.933 234.194 269.999C263.345 283.186 294.352 284.709 293.785 243.434L297.221 255.692L319.519 248.687L235.688 225.571H235.671ZM324.672 220.668L261.112 204.907C263.551 213.313 258.106 220.861 254.241 227.638C260.803 224.311 258.587 228.514 260.7 229.249C278.428 235.553 297.084 239.511 315.001 244.975C321.288 243.871 320.189 225.396 324.672 220.668Z" fill="#28282B" stroke="#28282B" stroke-width="2" stroke-miterlimit="10"/>
<path d="M218.166 91.0447C200.747 94.0567 177.367 112.795 175.22 131.34L160.017 129.343C154.778 126.139 166.27 96.1231 172.678 92.7959L161.443 125.07L170.994 127.224C181.026 111.026 194.254 94.5646 212.995 89.2059L206.863 75.4765L182.95 85.7385C176.526 85.8436 186.987 79.9771 187.399 79.7495C191.488 77.5429 204.904 70.7833 208.46 71.9216L218.2 90.9921L218.166 91.0447Z" fill="#28282B" stroke="#28282B" stroke-width="0.5" stroke-miterlimit="10"/>
<path d="M252.042 12.7661C258.072 17.9496 257.436 30.0679 270.955 32.8698L286.88 35.0063C279.768 34.4284 271.883 36.5298 264.994 33.6929C254.722 29.4725 253.674 11.5578 239.433 10.5771C231.17 9.99921 213.957 18.3174 207.859 24.4991C218.407 25.4798 228.353 25.4273 236.581 32.8873C238.471 34.6035 241.374 34.7961 240.481 38.5262C229.985 28.1766 215.744 32.0993 204.423 25.3747C211.14 11.9956 240.635 2.9594 252.025 12.7836L252.042 12.7661Z" fill="#28282B" stroke="#28282B" stroke-width="3" stroke-miterlimit="10"/>
<path d="M295.469 73.5675C293.974 78.6285 299.609 76.5971 300.622 80.5373L288.615 77.8405L279.149 91.062C271.917 70.7131 304.556 73.0597 310.74 61.9746C315.379 53.674 311.943 43.9198 305.793 37.6505C309.933 34.3933 314.691 47.0544 315.379 50.7144C318.179 65.6697 308.232 71.1684 295.486 73.5675H295.469Z" fill="#28282B" stroke="#28282B" stroke-width="2" stroke-miterlimit="10"/>
<path d="M274.837 61.2918C276.675 70.1704 266.403 71.5539 267.863 80.4324L261.112 80.5375C259.858 74.9687 264.805 73.5152 266.987 69.9077C269.684 65.4772 267.571 59.5582 274.837 61.2918Z" fill="#28282B"/>
<path d="M223.302 238.163L219.042 246.551C212.291 242.12 207.533 238.898 199.287 241.665C198.548 227.358 216.311 241.805 223.32 238.18L223.302 238.163Z" fill="#28282B"/>
</g>
<defs>
<clipPath id="clip0_721_89">
<rect width="414" height="366" fill="white"/>
</clipPath>
</defs>
</svg>
