<svg width="166" height="49" viewBox="0 0 166 49" fill="none" xmlns="http://www.w3.org/2000/svg">
<path d="M64.3535 26.5582L64.3535 5.93317L68.4551 5.93317L68.4551 13.3043L70.4004 13.3043L70.4004 5.93317L74.502 5.93317L74.502 26.5582L70.4004 26.5582L70.4004 17.2066L68.4551 17.2066L68.4551 26.5582L64.3535 26.5582ZM75.8741 26.5582L75.8741 5.93317L84.1241 5.93317L84.1241 9.91754L80.0694 9.91754L80.0694 13.9371L83.96 13.9371L83.96 17.816L80.0694 17.816L80.0694 22.5386L84.3936 22.5386L84.3936 26.5582L75.8741 26.5582ZM85.3087 26.5582L85.3087 5.93317L89.4337 5.93317L89.4337 23.0425L93.6759 23.0425L93.6759 26.5582L85.3087 26.5582ZM99.2902 26.7457C97.4074 26.7457 96.048 26.2769 95.2121 25.3394C94.384 24.4019 93.9699 22.9097 93.9699 20.8629L93.9699 18.8472L98.048 18.8472L98.048 21.4254C98.048 21.9019 98.1183 22.2769 98.259 22.5504C98.4074 22.816 98.6613 22.9488 99.0207 22.9488C99.3957 22.9488 99.6535 22.8394 99.7941 22.6207C99.9425 22.4019 100.017 22.0425 100.017 21.5425C100.017 20.9097 99.9543 20.3824 99.8293 19.9605C99.7043 19.5308 99.4855 19.1246 99.173 18.7418C98.8683 18.3511 98.4425 17.898 97.8957 17.3824L96.0441 15.6246C94.6613 14.3199 93.9699 12.8277 93.9699 11.148C93.9699 9.3902 94.3761 8.05035 95.1886 7.12848C96.009 6.2066 97.1925 5.74567 98.7394 5.74567C100.63 5.74567 101.97 6.24957 102.759 7.25739C103.556 8.2652 103.954 9.79645 103.954 11.8511L99.759 11.8511L99.759 10.4332C99.759 10.1519 99.6769 9.93317 99.5129 9.77692C99.3566 9.62067 99.1418 9.54254 98.8683 9.54254C98.5402 9.54254 98.298 9.63629 98.1418 9.82379C97.9933 10.0035 97.9191 10.2379 97.9191 10.5269C97.9191 10.816 97.9972 11.1285 98.1535 11.4644C98.3097 11.8004 98.6183 12.1871 99.0793 12.6246L101.458 14.9097C101.935 15.3629 102.372 15.8433 102.771 16.3511C103.169 16.8511 103.489 17.4371 103.732 18.1089C103.974 18.773 104.095 19.5855 104.095 20.5464C104.095 22.4839 103.736 24.0035 103.017 25.105C102.306 26.1988 101.064 26.7457 99.2902 26.7457ZM104.834 26.5582L104.834 5.93317L108.819 5.93317L108.819 26.5582L104.834 26.5582ZM110.003 26.5582L110.003 5.93317L114.245 5.93317L116.144 15.8121L116.144 5.93317L120.128 5.93317L120.128 26.5582L116.097 26.5582L114.034 16.2457L114.034 26.5582L110.003 26.5582ZM125.754 26.7457C122.809 26.7457 121.336 24.6363 121.336 20.4175L121.336 11.523C121.336 7.67145 123.024 5.74567 126.399 5.74567C127.789 5.74567 128.856 6.02692 129.598 6.58942C130.34 7.1441 130.852 7.9566 131.133 9.02692C131.414 10.0972 131.555 11.4019 131.555 12.941L127.524 12.941L127.524 11.1129C127.524 10.6675 127.461 10.2964 127.336 9.99957C127.219 9.69489 126.969 9.54254 126.586 9.54254C126.11 9.54254 125.793 9.7027 125.637 10.023C125.489 10.3433 125.414 10.6949 125.414 11.0777L125.414 21.0738C125.414 21.6285 125.485 22.0816 125.625 22.4332C125.774 22.7769 126.059 22.9488 126.481 22.9488C126.918 22.9488 127.207 22.7769 127.348 22.4332C127.496 22.0816 127.571 21.6207 127.571 21.0504L127.571 18.1089L126.469 18.1089L126.469 14.5464L131.508 14.5464L131.508 26.5582L129.856 26.5582L129.153 24.8238C128.434 26.105 127.301 26.7457 125.754 26.7457ZM133.079 28.7379L133.947 25.3746C133.001 24.3746 132.529 22.8941 132.529 20.9332L132.529 11.1363C132.529 9.36285 132.962 8.02301 133.829 7.11676C134.704 6.2027 135.966 5.74567 137.615 5.74567C138.294 5.74567 138.912 5.82379 139.466 5.98004L140.204 3.12067L141.845 3.12067L140.931 6.69489C142.111 7.58551 142.701 9.06598 142.701 11.1363L142.701 20.9332C142.701 22.7691 142.275 24.1988 141.423 25.2222C140.572 26.2379 139.302 26.7457 137.615 26.7457C136.755 26.7457 135.997 26.6089 135.341 26.3355L134.72 28.7379L133.079 28.7379ZM137.65 22.9488C138.04 22.9488 138.294 22.773 138.412 22.4214C138.529 22.0621 138.587 21.6324 138.587 21.1324L138.587 11.066C138.587 10.6988 138.537 10.355 138.435 10.0347C138.333 9.7066 138.079 9.54254 137.673 9.54254C137.275 9.54254 137.001 9.69489 136.853 9.99957C136.712 10.2964 136.642 10.6636 136.642 11.1011L136.642 21.1558C136.642 21.6949 136.704 22.1285 136.829 22.4566C136.954 22.7847 137.228 22.9488 137.65 22.9488ZM143.909 26.5582L143.909 5.93317L150.237 5.93317C151.291 5.93317 152.088 6.17535 152.627 6.65973C153.166 7.13629 153.526 7.80817 153.706 8.67535C153.893 9.53473 153.987 10.5464 153.987 11.7105C153.987 12.8355 153.842 13.7339 153.553 14.4058C153.272 15.0777 152.737 15.5425 151.948 15.8004C152.596 15.9332 153.049 16.2574 153.307 16.773C153.573 17.2808 153.706 17.941 153.706 18.7535L153.706 26.5582L149.639 26.5582L149.639 18.4839C149.639 17.8824 149.514 17.5113 149.264 17.3707C149.022 17.2222 148.627 17.148 148.081 17.148L148.081 26.5582L143.909 26.5582ZM148.104 13.5738L149.1 13.5738C149.67 13.5738 149.956 12.9527 149.956 11.7105C149.956 10.9058 149.893 10.3785 149.768 10.1285C149.643 9.87848 149.409 9.75348 149.065 9.75348L148.104 9.75348L148.104 13.5738ZM65.2855 28.7692C64.9995 28.4702 64.3755 28.4572 64.0375 28.4572L63.9595 28.4572L63.9595 28.3792L69.9005 28.3792L69.9005 28.4572L69.8095 28.4572C69.4845 28.4572 68.9905 28.4702 68.7175 28.7692C68.4575 29.0292 68.4835 29.6792 68.4835 29.9392L68.4835 33.0462L70.1605 31.4342C71.1355 30.4722 71.8375 29.8742 71.6555 29.0812C71.6035 28.8212 71.3825 28.4702 70.5635 28.4572L70.5635 28.3792L74.9445 28.3792L74.9445 28.4572C73.2155 28.5092 71.6815 29.9782 70.3945 31.3302L74.3595 37.2842C74.5935 37.6612 74.8795 38.1032 75.2565 38.3112C75.5685 38.4932 76.2185 38.4802 76.2185 38.4802L76.2185 38.5582L70.2775 38.5582L70.2775 38.4802C70.5375 38.4932 70.7845 38.4412 70.9405 38.1812C71.1225 37.8692 70.7455 37.2062 70.4465 36.6862L68.4835 33.6442L68.4835 36.9722C68.4835 37.2452 68.4575 37.9082 68.7175 38.1682C68.9905 38.4542 69.5235 38.4802 69.8615 38.4802L69.9005 38.4802L69.9005 38.5582L63.9595 38.5582L63.9595 38.4802L64.0375 38.4802C64.3755 38.4802 64.9995 38.4542 65.2855 38.1682C65.5325 37.9082 65.5065 37.2452 65.5065 36.9722L65.5065 29.9652C65.5065 29.6922 65.5325 29.0292 65.2855 28.7692ZM80.7745 35.9322C80.7745 37.0892 80.7485 37.5702 81.3725 37.9212C81.9835 38.2592 83.4785 38.2982 84.1285 37.9342C85.1425 37.3622 85.0255 36.4912 85.0255 35.6592L85.0255 31.2132C85.0255 29.4452 85.1035 28.4572 83.3875 28.4572L83.3875 28.3792L86.7675 28.3792L86.7675 28.4572C85.0515 28.4572 85.1295 29.4452 85.1295 31.2132L85.1295 35.7112C85.1295 36.8292 85.1815 37.4922 83.9465 38.2072C82.6335 38.9612 80.2025 38.7662 79.0195 38.1162C77.7065 37.3882 77.7845 36.3872 77.7845 35.6072L77.7845 29.9652C77.7845 29.6922 77.8235 29.0292 77.5635 28.7692C77.2905 28.4702 76.6665 28.4572 76.3285 28.4572L76.2375 28.4572L76.2375 28.3792L82.3215 28.3792L82.3215 28.4572L82.2435 28.4572C81.9055 28.4572 81.2815 28.4702 80.9955 28.7692C80.7485 29.0292 80.7745 29.6922 80.7745 29.9652L80.7745 35.9322ZM86.9971 38.5582L86.9971 38.4802L87.0751 38.4802C87.4131 38.4802 88.0371 38.4542 88.3231 38.1682C88.5701 37.9082 88.5441 37.2452 88.5441 36.9722L88.5441 29.9652C88.5441 29.6922 88.5701 29.0292 88.3231 28.7692C88.0371 28.4702 87.4131 28.4572 87.0751 28.4572L86.9971 28.4572L86.9971 28.3792L93.0811 28.3792L93.0811 28.4572L92.9901 28.4572C92.6651 28.4572 92.0281 28.4702 91.7551 28.7692C91.5081 29.0292 91.5341 29.6922 91.5341 29.9652L91.5341 36.9722C91.5341 37.5962 91.5081 38.2332 91.7811 38.4152C91.9241 38.5192 93.0291 38.4802 93.4841 38.2592C94.8751 37.6482 95.7201 36.7512 95.8371 34.0472L95.9281 34.0472L95.9281 38.5582L86.9971 38.5582ZM100.981 36.9722C100.981 37.2452 100.955 37.9082 101.202 38.1682C101.475 38.4542 102.112 38.4802 102.437 38.4802L102.528 38.4802L102.528 38.5582L96.4435 38.5582L96.4435 38.4802L96.5215 38.4802C96.8595 38.4802 97.4835 38.4542 97.7695 38.1682C98.0165 37.9082 97.9905 37.2452 97.9905 36.9722L97.9905 28.4572C96.9245 28.4962 96.0275 29.3932 95.4555 30.3552C94.9875 31.1222 94.8445 31.7982 94.8445 32.6302L94.7665 32.6302L94.7665 28.3792L104.205 28.3792L104.205 32.6302L104.127 32.6302C104.127 31.7982 103.971 31.1222 103.516 30.3552C102.944 29.3932 102.034 28.4962 100.981 28.4572L100.981 36.9722ZM108.791 35.9322C108.791 37.0892 108.765 37.5702 109.389 37.9212C110 38.2592 111.495 38.2982 112.145 37.9342C113.159 37.3622 113.042 36.4912 113.042 35.6592L113.042 31.2132C113.042 29.4452 113.12 28.4572 111.404 28.4572L111.404 28.3792L114.784 28.3792L114.784 28.4572C113.068 28.4572 113.146 29.4452 113.146 31.2132L113.146 35.7112C113.146 36.8292 113.198 37.4922 111.963 38.2072C110.65 38.9612 108.219 38.7662 107.036 38.1162C105.723 37.3882 105.801 36.3872 105.801 35.6072L105.801 29.9652C105.801 29.6922 105.84 29.0292 105.58 28.7692C105.307 28.4702 104.683 28.4572 104.345 28.4572L104.254 28.4572L104.254 28.3792L110.338 28.3792L110.338 28.4572L110.26 28.4572C109.922 28.4572 109.298 28.4702 109.012 28.7692C108.765 29.0292 108.791 29.6922 108.791 29.9652L108.791 35.9322ZM119.408 33.1762C119.837 33.1632 120.448 33.2152 120.864 33.0852C121.215 32.9812 121.41 32.7342 121.527 32.3702C121.644 31.9802 121.67 29.4842 121.28 28.9512C120.877 28.3922 120.253 28.4572 119.408 28.4572L119.408 33.1762ZM119.408 33.2542L119.408 36.9722C119.408 37.2452 119.382 37.9082 119.629 38.1682C119.915 38.4542 120.318 38.4802 120.643 38.4802L120.799 38.4802L120.799 38.5582L114.871 38.5582L114.871 38.4802L114.962 38.4802C115.287 38.4802 115.924 38.4542 116.197 38.1682C116.457 37.9082 116.418 37.2452 116.418 36.9722L116.418 29.9652C116.418 29.6922 116.457 29.0292 116.197 28.7692C115.924 28.4702 115.287 28.4572 114.962 28.4572L114.871 28.4572L114.871 28.3792L120.019 28.3792C121.124 28.3792 123.204 28.4182 124.14 29.7572C124.53 30.2902 124.582 30.9142 124.387 31.4342C123.893 32.7472 122.333 33.0202 121.527 33.2412C122.047 33.3712 122.957 33.5272 123.581 33.9562C124.543 34.6192 124.439 35.8282 124.439 36.6342L124.439 37.2972C124.439 37.5702 124.413 38.0512 124.738 38.0902C124.985 38.1032 125.115 37.9602 125.258 37.6872C125.323 37.5702 125.388 37.3492 125.453 37.1022C125.518 36.8292 125.609 35.9322 125.531 35.4122L125.609 35.4122C125.661 35.6852 125.661 36.2182 125.583 36.7772C125.544 37.0892 125.492 37.4012 125.362 37.6612C125.063 38.3632 124.634 38.5582 124.127 38.6362C123.451 38.7532 122.606 38.7012 121.93 38.2072C121.345 37.7782 121.28 36.9462 121.345 35.8282C121.358 35.6202 121.371 35.1522 121.371 35.1522C121.397 34.6062 121.371 33.8522 121.059 33.5272C120.721 33.1762 119.993 33.2672 119.408 33.2542ZM129.005 28.7692C128.732 28.4702 128.095 28.4572 127.77 28.4572L127.679 28.4572L127.679 28.3792L132.437 28.3792L136.22 35.7632L136.22 31.2132C136.22 29.4452 136.285 28.4572 134.569 28.4572L134.569 28.3792L137.962 28.3792L137.962 28.4572C136.246 28.4572 136.311 29.4452 136.311 31.2132L136.311 38.5582L133.945 38.5582L129.33 29.6142L129.33 35.7242C129.33 37.4792 129.252 38.4802 130.968 38.4802L130.968 38.5582L127.588 38.5582L127.588 38.4802C129.304 38.4802 129.226 37.4792 129.226 35.7242L129.226 29.9652C129.226 29.6922 129.252 29.0292 129.005 28.7692ZM139.305 35.5682L141.684 28.3792L143.842 28.3792L146.884 37.5962C147.118 38.2982 147.378 38.4542 148.132 38.4802L148.132 38.5582L142.347 38.5582L142.347 38.4802L142.906 38.4802C143.283 38.4802 143.439 38.4152 143.53 38.3372C143.842 38.0642 143.595 37.4662 143.426 36.8942L142.607 34.3332L139.812 34.3332C139.396 35.5682 138.902 36.9462 139.526 37.8562C139.942 38.4802 140.657 38.4802 141.203 38.4802L141.203 38.5582L136.692 38.5582L136.692 38.4802C138.356 38.4022 138.798 37.0762 139.305 35.5682ZM139.838 34.2422L142.568 34.2422L141.268 29.9262L139.838 34.2422ZM153.015 36.9722C153.015 37.2452 152.989 37.9082 153.236 38.1682C153.509 38.4542 154.146 38.4802 154.471 38.4802L154.562 38.4802L154.562 38.5582L148.478 38.5582L148.478 38.4802L148.556 38.4802C148.894 38.4802 149.518 38.4542 149.804 38.1682C150.051 37.9082 150.025 37.2452 150.025 36.9722L150.025 28.4572C148.959 28.4962 148.062 29.3932 147.49 30.3552C147.022 31.1222 146.879 31.7982 146.879 32.6302L146.801 32.6302L146.801 28.3792L156.239 28.3792L156.239 32.6302L156.161 32.6302C156.161 31.7982 156.005 31.1222 155.55 30.3552C154.978 29.3932 154.068 28.4962 153.015 28.4572L153.015 36.9722Z" fill="#EAE1D4"/>
<g clip-path="url(#clip0_738_654)">
<path d="M4.55076 3.00777L4.55078 3.00775C5.66577 1.39604 6.41448 0.589593 6.93436 0.189969C7.1961 -0.0112231 7.40675 -0.114764 7.58328 -0.162839C7.76332 -0.211872 7.89443 -0.19906 7.97751 -0.190941L7.97795 -0.190898L4.55076 3.00777ZM4.55076 3.00777C3.46864 4.57249 2.37256 6.43969 2.0063 7.35643L4.55076 3.00777ZM51.7765 21.7426C51.7265 21.8506 51.6727 21.9826 51.6156 22.1377C51.4973 22.4591 51.3723 22.8594 51.2447 23.3055C50.9906 24.1937 50.7298 25.2511 50.4942 26.2061L50.4911 26.2185L50.4872 26.2343C49.8408 28.8554 49.1107 31.8159 48.1017 34.176C47.596 35.3588 47.0154 36.4029 46.3314 37.1813C45.6462 37.961 44.8469 38.4853 43.9072 38.6002M51.7765 21.7426L43.9072 38.6002M51.7765 21.7426C54.479 26.3214 54.3748 31.5352 51.4557 36.4665C47.1146 43.7942 37.7544 48.4841 29.2043 47.6105C12.9865 45.9517 1.24378 33.8547 1.24378 18.87C1.24378 15.0766 1.94881 11.3946 3.34047 7.92016L3.34048 7.92014C3.6816 7.06823 4.5563 5.58963 5.48023 4.22919C5.94065 3.55124 6.40982 2.90775 6.82589 2.39189C7.11841 2.0292 7.37737 1.73898 7.58433 1.54357C10.3178 14.9847 12.77 22.8039 14.895 27.376C17.0372 31.985 18.8641 33.3306 20.3476 33.7792C21.8337 34.2309 23.2158 33.756 24.4803 32.901C25.735 32.0526 26.9045 30.8093 27.9832 29.6627L27.9988 29.6462L27.9988 29.6461L28.0144 29.6296C28.856 28.7359 29.6602 27.882 30.4229 27.2742C31.1979 26.6564 31.8801 26.3345 32.4783 26.4253C32.8217 26.4776 33.1815 26.6805 33.5538 27.0642C33.926 27.4478 34.3002 28.0017 34.6707 28.7317M51.7765 21.7426L34.6707 28.7317M43.9072 38.6002C42.517 38.7707 41.0717 37.9927 39.5588 36.3584C38.0413 34.7192 36.4195 32.1806 34.6707 28.7317M43.9072 38.6002L34.6707 28.7317M8.42869 39.6475L8.42875 39.6476L2.0062 7.35667C0.540557 11.012 -0.2 14.8855 -0.2 18.8727C-0.2 26.8744 2.78536 34.061 8.42869 39.6475ZM51.6131 20.0124L51.646 20.2097L29.0822 48.8889L29.0613 49.0878C29.0614 49.0878 29.0615 49.0878 29.0616 49.0878C29.7636 49.1615 30.4675 49.1972 31.1757 49.1999L31.1785 49.2028H31.2637C39.6993 49.2028 48.4429 44.417 52.6923 37.2425L52.6923 37.2424C55.9418 31.7518 56.0177 25.8931 52.884 20.7618C52.6789 20.4261 52.4557 20.2201 52.2296 20.1076C52.0023 19.9945 51.7872 19.9835 51.6134 20.0124C51.6133 20.0124 51.6132 20.0124 51.6131 20.0124Z" fill="#EAE1D4" stroke="#EAE1D4" stroke-width="0.4"/>
<path d="M39.7505 25.2276L39.8949 25.298L39.9949 25.1722L48.165 14.883L48.4546 14.5182L47.9907 14.5594L34.0048 15.7991L17.8788 12.8858L17.4066 12.8005L17.6784 13.1959L24.7813 23.5285L24.8575 23.6393L24.9889 23.6106L32.8928 21.8817L39.7505 25.2276ZM33.1336 20.3554L32.8459 20.215V20.3768L25.4888 21.987L20.6101 14.8888L33.9158 17.2931L33.9422 17.2979L33.969 17.2955L45.177 16.3007L39.4919 23.4579L33.1336 20.3554Z" fill="#EAE1D4" stroke="#EAE1D4" stroke-width="0.4"/>
<path d="M32.838 17.0978L32.9434 17.1169L32.9633 17.0962L38.1627 16.9681L38.4487 16.961L38.3438 16.6948L34.2496 6.30255L34.0983 5.91857L33.8907 6.27523L28.2334 15.9922L28.0898 16.2389L28.3706 16.2897L32.838 17.0978ZM30.4072 15.1498L33.8486 9.2414L36.3246 15.5311L32.9674 15.6131L30.4072 15.1498Z" fill="#EAE1D4" stroke="#EAE1D4" stroke-width="0.4"/>
<path d="M46.6772 16.1397L46.8762 16.1799L46.9133 15.9803L47.1116 14.9145L47.1477 14.7208L46.9546 14.6818L36.7383 12.6205L34.2496 6.30521L34.0983 5.9213L33.8907 6.27791L30.4131 12.2509L18.9583 13.1028L18.7602 13.1175L18.7736 13.3157L18.8467 14.3978L18.8602 14.5987L19.061 14.5837L31.161 13.6834L31.266 13.6756L31.319 13.5845L33.8487 9.2387L35.6545 13.823L35.6944 13.9242L35.801 13.9457L46.6772 16.1397Z" fill="#EAE1D4" stroke="#EAE1D4" stroke-width="0.4"/>
<path d="M39.1481 24.865L39.2821 25.0236L39.4356 24.8837L40.221 24.1678L40.3634 24.038L40.239 23.8908L33.1283 15.481L33 15.3293L32.8475 15.4566L24.7191 22.2365L24.571 22.36L24.689 22.5125L25.344 23.3586L25.471 23.5227L25.6303 23.3898L32.8259 17.3853L39.1481 24.865Z" fill="#EAE1D4" stroke="#EAE1D4" stroke-width="0.4"/>
<path d="M32.1967 16.2606L32.1727 16.4591L32.3711 16.485L33.4067 16.62L33.605 16.6458L33.629 16.4473L34.6885 7.66961L34.7124 7.47105L34.5141 7.4452L33.4785 7.31018L33.2801 7.28432L33.2562 7.48288L32.1967 16.2606Z" fill="#EAE1D4" stroke="#EAE1D4" stroke-width="0.4"/>
</g>
<defs>
<clipPath id="clip0_738_654">
<rect width="54.9809" height="49" fill="white"/>
</clipPath>
</defs>
</svg>
