<?xml version="1.0" encoding="UTF-8"?>
<svg id="Layer_1" data-name="Layer 1" xmlns="http://www.w3.org/2000/svg" viewBox="0 0 214.41 83.54">
  <defs>
    <style>
      .cls-1, .cls-2 {
        fill: #eae1d4;
      }

      .cls-2 {
        stroke: #eae1d4;
        stroke-miterlimit: 10;
      }
    </style>
  </defs>
  <path class="cls-1" d="M78.6,47.56v-27.28h5.43v9.75h2.57v-9.75h5.43v27.28h-5.43v-12.37h-2.57v12.37h-5.43ZM93.83,47.56v-27.28h10.91v5.27h-5.36v5.32h5.15v5.13h-5.15v6.25h5.72v5.32h-11.27ZM106.31,47.56v-27.28h5.46v22.63h5.61v4.65h-11.07ZM124.81,47.81c-2.49,0-4.29-.62-5.39-1.86-1.1-1.24-1.64-3.21-1.64-5.92v-2.67h5.39v3.41c0,.63.09,1.13.28,1.49.2.35.53.53,1.01.53s.84-.14,1.02-.43c.2-.29.29-.76.29-1.43,0-.84-.08-1.53-.25-2.09-.17-.57-.45-1.11-.87-1.61-.4-.52-.97-1.12-1.69-1.8l-2.45-2.33c-1.83-1.73-2.74-3.7-2.74-5.92s.54-4.1,1.61-5.32c1.09-1.22,2.65-1.83,4.7-1.83,2.5,0,4.27.67,5.32,2,1.05,1.33,1.58,3.36,1.58,6.08h-5.55v-1.88c0-.37-.11-.66-.33-.87-.21-.21-.49-.31-.85-.31-.43,0-.75.12-.96.37-.2.24-.29.55-.29.93s.1.8.31,1.24c.21.44.61.96,1.22,1.53l3.15,3.02c.63.6,1.21,1.23,1.74,1.91.53.66.95,1.44,1.27,2.33.32.88.48,1.95.48,3.22,0,2.56-.48,4.57-1.43,6.03-.94,1.45-2.58,2.17-4.93,2.17ZM132.14,47.56v-27.28h5.27v27.28h-5.27ZM138.98,47.56v-27.28h5.61l2.51,13.07v-13.07h5.27v27.28h-5.33l-2.73-13.64v13.64h-5.33ZM159.81,47.81c-3.9,0-5.84-2.79-5.84-8.37v-11.76c0-5.09,2.23-7.64,6.7-7.64,1.84,0,3.25.37,4.23,1.12.98.73,1.66,1.81,2.03,3.22.37,1.42.56,3.14.56,5.18h-5.33v-2.42c0-.59-.08-1.08-.25-1.47-.15-.4-.49-.6-.99-.6-.63,0-1.05.21-1.26.64-.2.42-.29.89-.29,1.4v13.22c0,.73.09,1.33.28,1.8.2.45.57.68,1.13.68s.96-.23,1.15-.68c.2-.47.29-1.07.29-1.83v-3.89h-1.46v-4.71h6.66v15.89h-2.19l-.93-2.29c-.95,1.69-2.45,2.54-4.49,2.54ZM169.5,50.44l1.15-4.45c-1.25-1.32-1.88-3.28-1.88-5.87v-12.96c0-2.35.57-4.12,1.72-5.32,1.16-1.21,2.83-1.81,5.01-1.81.9,0,1.72.1,2.45.31l.98-3.78h2.17l-1.21,4.73c1.56,1.18,2.34,3.14,2.34,5.87v12.96c0,2.43-.56,4.32-1.69,5.67-1.13,1.34-2.81,2.02-5.04,2.02-1.14,0-2.14-.18-3.01-.54l-.82,3.18h-2.17ZM175.54,42.79c.52,0,.85-.23,1.01-.7.15-.48.23-1.04.23-1.71v-13.31c0-.49-.07-.94-.2-1.36-.13-.43-.47-.65-1.01-.65s-.89.2-1.09.6c-.19.39-.28.88-.28,1.46v13.3c0,.71.08,1.29.25,1.72.17.43.53.65,1.09.65ZM183.82,47.56v-27.28h8.37c1.39,0,2.45.32,3.16.96.71.63,1.19,1.52,1.43,2.67.25,1.14.37,2.47.37,4.01s-.19,2.68-.57,3.57c-.37.89-1.08,1.5-2.12,1.84.86.18,1.46.6,1.8,1.29.35.67.53,1.54.53,2.62v10.32h-5.38v-10.68c0-.8-.17-1.29-.5-1.47-.32-.2-.84-.29-1.57-.29v12.45h-5.52ZM189.37,30.39h1.32c.75,0,1.13-.82,1.13-2.46,0-1.06-.08-1.76-.25-2.09-.17-.33-.48-.5-.93-.5h-1.27v5.05ZM79.74,50.94c-.37-.38-1.16-.4-1.59-.4h-.1v-.1h7.58v.1h-.12c-.41,0-1.05.02-1.39.4-.33.33-.3,1.16-.3,1.49v3.97l2.14-2.06c1.24-1.23,2.14-1.99,1.91-3-.07-.33-.35-.78-1.39-.8v-.1h5.59v.1c-2.21.07-4.17,1.94-5.81,3.67l5.06,7.6c.3.48.66,1.05,1.14,1.31.4.23,1.23.22,1.23.22v.1h-7.58v-.1c.33.02.65-.05.85-.38.23-.4-.25-1.24-.63-1.91l-2.51-3.88v4.25c0,.35-.03,1.19.3,1.53.35.37,1.03.4,1.46.4h.05v.1h-7.58v-.1h.1c.43,0,1.23-.03,1.59-.4.32-.33.28-1.18.28-1.53v-8.94c0-.35.03-1.19-.28-1.53ZM99.51,60.08c0,1.48-.03,2.09.76,2.54.78.43,2.69.48,3.52.02,1.29-.73,1.14-1.84,1.14-2.9v-5.68c0-2.26.1-3.52-2.09-3.52v-.1h4.31v.1c-2.19,0-2.09,1.26-2.09,3.52v5.74c0,1.43.07,2.27-1.51,3.19-1.68.96-4.78.71-6.29-.12-1.68-.93-1.58-2.21-1.58-3.2v-7.2c0-.35.05-1.19-.28-1.53-.35-.38-1.14-.4-1.58-.4h-.12v-.1h7.77v.1h-.1c-.43,0-1.23.02-1.59.4-.32.33-.28,1.18-.28,1.53v7.62ZM107.46,63.43v-.1h.1c.43,0,1.23-.03,1.59-.4.32-.33.28-1.18.28-1.53v-8.94c0-.35.03-1.19-.28-1.53-.37-.38-1.16-.4-1.59-.4h-.1v-.1h7.77v.1h-.12c-.41,0-1.23.02-1.58.4-.32.33-.28,1.18-.28,1.53v8.94c0,.8-.03,1.61.32,1.84.18.13,1.59.08,2.17-.2,1.78-.78,2.85-1.92,3-5.38h.12v5.76h-11.4ZM125.31,61.41c0,.35-.03,1.19.28,1.53.35.37,1.16.4,1.58.4h.12v.1h-7.77v-.1h.1c.43,0,1.23-.03,1.59-.4.32-.33.28-1.18.28-1.53v-10.87c-1.36.05-2.51,1.19-3.24,2.42-.6.98-.78,1.84-.78,2.9h-.1v-5.43h12.05v5.43h-.1c0-1.06-.2-1.92-.78-2.9-.73-1.23-1.89-2.37-3.24-2.42v10.87ZM135.28,60.08c0,1.48-.03,2.09.76,2.54.78.43,2.69.48,3.52.02,1.29-.73,1.14-1.84,1.14-2.9v-5.68c0-2.26.1-3.52-2.09-3.52v-.1h4.31v.1c-2.19,0-2.09,1.26-2.09,3.52v5.74c0,1.43.07,2.27-1.51,3.19-1.68.96-4.78.71-6.29-.12-1.68-.93-1.58-2.21-1.58-3.2v-7.2c0-.35.05-1.19-.28-1.53-.35-.38-1.14-.4-1.58-.4h-.12v-.1h7.77v.1h-.1c-.43,0-1.23.02-1.59.4-.32.33-.28,1.18-.28,1.53v7.62ZM148.83,56.56c.55-.02,1.33.05,1.86-.12.45-.13.7-.45.85-.91.15-.5.18-3.68-.32-4.36-.51-.71-1.31-.63-2.39-.63v6.02ZM148.83,56.66v4.75c0,.35-.03,1.19.28,1.53.37.37.88.4,1.29.4h.2v.1h-7.57v-.1h.12c.41,0,1.23-.03,1.58-.4.33-.33.28-1.18.28-1.53v-8.94c0-.35.05-1.19-.28-1.53-.35-.38-1.16-.4-1.58-.4h-.12v-.1h6.57c1.41,0,4.07.05,5.26,1.76.5.68.56,1.48.32,2.14-.63,1.68-2.62,2.02-3.65,2.31.66.17,1.83.37,2.62.91,1.23.85,1.1,2.39,1.1,3.42v.85c0,.35-.03.96.38,1.01.32.02.48-.17.66-.51.08-.15.17-.43.25-.75.08-.35.2-1.49.1-2.16h.1c.07.35.07,1.03-.03,1.74-.05.4-.12.8-.28,1.13-.38.9-.93,1.14-1.58,1.24-.86.15-1.94.08-2.8-.55-.75-.55-.83-1.61-.75-3.04.02-.27.03-.86.03-.86.03-.7,0-1.66-.4-2.07-.43-.45-1.36-.33-2.11-.35ZM161.08,50.94c-.35-.38-1.16-.4-1.58-.4h-.12v-.1h6.07l4.83,9.43v-5.81c0-2.26.08-3.52-2.11-3.52v-.1h4.33v.1c-2.19,0-2.11,1.26-2.11,3.52v9.38h-3.02l-5.89-11.42v7.8c0,2.24-.1,3.52,2.09,3.52v.1h-4.31v-.1c2.19,0,2.09-1.28,2.09-3.52v-7.35c0-.35.03-1.19-.28-1.53ZM174.23,59.62l3.04-9.18h2.75l3.88,11.76c.3.9.63,1.1,1.59,1.13v.1h-7.38v-.1h.71c.48,0,.68-.08.8-.18.4-.35.08-1.11-.13-1.84l-1.05-3.27h-3.57c-.53,1.58-1.16,3.34-.37,4.5.53.8,1.44.8,2.14.8v.1h-5.76v-.1c2.12-.1,2.69-1.79,3.34-3.72ZM174.91,57.92h3.48l-1.66-5.51-1.83,5.51ZM191.72,61.41c0,.35-.03,1.19.28,1.53.35.37,1.16.4,1.58.4h.12v.1h-7.77v-.1h.1c.43,0,1.23-.03,1.59-.4.32-.33.28-1.18.28-1.53v-10.87c-1.36.05-2.51,1.19-3.24,2.42-.6.98-.78,1.84-.78,2.9h-.1v-5.43h12.05v5.43h-.1c0-1.06-.2-1.92-.78-2.9-.73-1.23-1.89-2.37-3.24-2.42v10.87Z"/>
  <g>
    <path class="cls-2" d="M47.34,65.97c-.8,0-1.6-.04-2.39-.12-8.32-.82-15.97-4.18-21.52-9.48-2.84-2.7-5.05-5.82-6.58-9.26-1.61-3.61-2.42-7.51-2.42-11.59s.77-7.89,2.3-11.56c.38-.91,1.52-2.78,2.65-4.36,2.35-3.27,3.13-3.2,3.47-3.17.16.01.69.12.84.84,2.32,11.05,4.64,19.32,6.9,24.59,1.86,4.34,3.75,6.82,5.61,7.36,2.27.66,4.49-1.61,6.64-3.81,1.98-2.03,3.85-3.94,5.88-3.65,1.25.18,2.33,1.18,3.32,3.04,4.18,7.93,6.82,9.39,8.29,9.22,2.87-.34,4.59-7.03,5.72-11.45,1.02-4,1.48-5.63,2.53-5.8.31-.05.77.03,1.19.69l.28.44h0c2.97,5.03,2.81,10.7-.48,16.04-2.28,3.7-5.93,6.93-10.28,9.1-3.83,1.91-7.91,2.89-11.94,2.89ZM22.53,17.84c-1.12.85-3.96,4.94-4.65,6.62-1.46,3.52-2.2,7.24-2.2,11.08s.78,7.63,2.31,11.08c1.46,3.29,3.58,6.28,6.3,8.86,5.36,5.1,12.74,8.35,20.79,9.14,4.56.45,9.28-.47,13.65-2.65,4.15-2.07,7.62-5.14,9.78-8.64,3.12-5.07,3.2-10.45.21-15.16-.43.69-1.02,3-1.47,4.74-1.36,5.32-3.06,11.94-6.78,12.38-2.74.32-5.86-2.91-9.54-9.87-.77-1.47-1.58-2.27-2.39-2.39-1.4-.2-3.06,1.49-4.81,3.28-1.99,2.03-4.2,4.3-6.7,4.3-.38,0-.77-.05-1.17-.17-2.26-.66-4.36-3.3-6.41-8.07-2.31-5.38-4.57-13.4-6.92-24.54Z"/>
    <path class="cls-2" d="M56.25,41.85l-7.28-3.42-8.37,1.76-7.57-10.6,17.09,2.97,14.84-1.27-8.71,10.55ZM49.12,37.13l6.78,3.18,6.21-7.52-12.05,1.03-14.25-2.48,5.34,7.47,7.98-1.68Z"/>
    <path class="cls-2" d="M48.93,33.62l-4.8-.83,6.06-10.01,4.39,10.71-5.65.14ZM46.14,31.88l2.88.5,3.72-.09-2.76-6.75-3.84,6.34Z"/>
    <polygon class="cls-2" points="63.41 32.66 51.98 30.44 49.98 25.54 47.17 30.18 34.46 31.09 34.37 29.85 46.43 28.98 50.19 22.78 52.88 29.34 63.65 31.44 63.41 32.66"/>
    <polygon class="cls-2" points="55.75 41.37 48.92 33.6 41.14 39.85 40.6 39.17 49.03 32.4 56.4 40.8 55.75 41.37"/>
    <rect class="cls-2" x="45.07" y="28.14" width="8.91" height=".87" transform="translate(15 74.16) rotate(-82.84)"/>
  </g>
</svg>