<svg width="24" height="24" viewBox="0 0 24 24" fill="none" xmlns="http://www.w3.org/2000/svg">
<path d="M12 23C9.06185 23 6.29934 21.8557 4.22205 19.7779C2.14427 17.7005 1 14.9385 1 12.0002C1 9.06203 2.14427 6.29946 4.22157 4.22164C6.29886 2.14381 9.06185 1 12 1C14.9381 1 17.7007 2.14429 19.778 4.22164C21.8557 6.29946 23 9.06155 23 11.9998C23 14.938 21.8557 17.7005 19.778 19.7779C17.7002 21.8552 14.9381 23 12 23ZM12 1.7218C9.25481 1.7218 6.67371 2.79103 4.73211 4.73219C2.79051 6.67335 1.72178 9.25451 1.72178 12.0002C1.72178 17.6678 6.33255 22.2787 12 22.2787C17.6675 22.2787 22.2782 17.6678 22.2782 12.0002C22.2782 6.33266 17.6675 1.7218 12 1.7218Z" fill="#EAE1D4" stroke="#EAE1D4" stroke-width="1.5"/>
<path d="M15.862 14.6079C15.7687 14.8164 15.5141 14.8964 15.3183 14.7788L12.485 13.0765C12.1841 12.8957 12 12.5704 12 12.2193V6.34075C12 6.15256 12.1526 6 12.3408 6V6C12.5289 6 12.6815 6.15256 12.6815 6.34075V11.7401C12.6815 12.0911 12.8656 12.4164 13.1665 12.5972L15.7106 14.1259C15.8757 14.2251 15.9408 14.4321 15.862 14.6079V14.6079Z" fill="#EAE1D4" stroke="#EAE1D4" stroke-width="1.5"/>
</svg>
