<svg width="533" height="925" viewBox="0 0 533 925" fill="none" xmlns="http://www.w3.org/2000/svg">
<path d="M0 0V925H533V0H0ZM519.788 850.451C519.788 871.283 513.729 888.165 506.263 888.165H446.066C436.43 886.672 434.417 876.849 434.007 872.838V829.353C434.007 808.521 417.883 791.638 397.986 791.638H311.97C302.1 790.247 299.618 776.945 299.012 770.356V763.767C299.012 742.935 282.888 726.052 262.992 726.052H37.4083L26.7565 725.97C13.2317 724.62 13.2317 701.577 13.2317 701.577V669.429V251.09C13.8376 226.717 22.3199 222.052 25.5448 221.172H263.187C283.064 221.172 299.169 204.31 299.169 183.498V88.9966V65.1973C299.833 46.8619 307.417 39.6586 313.26 36.8347H506.263C513.729 36.8347 519.788 53.7172 519.788 74.5493V850.451Z" fill="#D5FF8B"/>
</svg>
