<svg width="1470" height="915" viewBox="0 0 1470 915" fill="none" xmlns="http://www.w3.org/2000/svg">
<g clip-path="url(#clip0_328_25)">
<path d="M629.193 0H506.128H0V915H1470V0H629.193ZM1433.56 841.277C1433.56 861.884 1416.86 878.584 1396.25 878.584H1234.21C1200.77 876.863 1197.31 848.24 1196.97 842.35V783.687C1196.97 763.08 1180.26 746.38 1159.65 746.38H860.95C829.551 744.154 825.259 718.162 824.692 710.814V699.256C824.692 678.649 807.991 661.949 787.382 661.949H103.246V661.868L73.8512 661.787C36.5612 659.742 36.6624 624.379 36.6624 624.379L36.8042 575.048H36.4398V332.746L36.4802 303.414C38.0795 273.294 61.482 267.545 70.4097 266.452H505.257C525.846 266.452 542.527 249.772 542.527 229.185V103.135H542.547V73.7433C544.329 39.2299 574.776 36.6591 579.271 36.4567H1396.23C1416.84 36.4567 1433.54 53.1567 1433.54 73.7635V841.277H1433.56Z" fill="#D5FF8B"/>
</g>
<defs>
<clipPath id="clip0_328_25">
<rect width="1470" height="915" fill="white"/>
</clipPath>
</defs>
</svg>
