<svg width="331" height="132" viewBox="0 0 331 132" fill="none" xmlns="http://www.w3.org/2000/svg">
<path d="M2.35156 86L2.35156 10.375L17.3906 10.375L17.3906 37.4023L24.5234 37.4023L24.5234 10.375L39.5625 10.375L39.5625 86L24.5234 86L24.5234 51.7109L17.3906 51.7109L17.3906 86L2.35156 86ZM44.5936 86L44.5936 10.375L74.8436 10.375L74.8436 24.9844L59.9764 24.9844L59.9764 39.7227L74.2421 39.7227L74.2421 53.9453L59.9764 53.9453L59.9764 71.2617L75.8319 71.2617L75.8319 86L44.5936 86ZM79.1872 86L79.1872 10.375L94.3122 10.375L94.3122 73.1094L109.867 73.1094L109.867 86L79.1872 86ZM130.453 86.6875C123.549 86.6875 118.565 84.9687 115.5 81.5312C112.463 78.0937 110.945 72.6224 110.945 65.1172L110.945 57.7266L125.898 57.7266L125.898 67.1797C125.898 68.9271 126.156 70.3021 126.672 71.3047C127.216 72.2786 128.147 72.7656 129.464 72.7656C130.839 72.7656 131.785 72.3646 132.3 71.5625C132.845 70.7604 133.117 69.4427 133.117 67.6094C133.117 65.2891 132.888 63.3555 132.429 61.8086C131.971 60.2331 131.169 58.7435 130.023 57.3398C128.906 55.9076 127.345 54.2461 125.339 52.3555L118.55 45.9102C113.48 41.1263 110.945 35.6549 110.945 29.4961C110.945 23.0508 112.435 18.138 115.414 14.7578C118.422 11.3776 122.761 9.6875 128.433 9.6875C135.366 9.6875 140.278 11.5352 143.172 15.2305C146.093 18.9258 147.554 24.5404 147.554 32.0742L132.172 32.0742L132.172 26.875C132.172 25.8437 131.871 25.0417 131.269 24.4687C130.696 23.8958 129.908 23.6094 128.906 23.6094C127.703 23.6094 126.815 23.9531 126.242 24.6406C125.698 25.2995 125.425 26.1589 125.425 27.2187C125.425 28.2786 125.712 29.4245 126.285 30.6562C126.858 31.888 127.989 33.306 129.679 34.9102L138.402 43.2891C140.149 44.9505 141.754 46.7122 143.214 48.5742C144.675 50.4076 145.85 52.556 146.738 55.0195C147.626 57.4544 148.07 60.4336 148.07 63.957C148.07 71.0612 146.752 76.6328 144.117 80.6719C141.51 84.6823 136.955 86.6875 130.453 86.6875ZM150.781 86L150.781 10.375L165.39 10.375L165.39 86L150.781 86ZM169.734 86L169.734 10.375L185.288 10.375L192.249 46.5977L192.249 10.375L206.859 10.375L206.859 86L192.077 86L184.515 48.1875L184.515 86L169.734 86ZM227.488 86.6875C216.688 86.6875 211.288 78.9531 211.288 63.4844L211.288 30.8711C211.288 16.7487 217.476 9.6875 229.851 9.6875C234.95 9.6875 238.86 10.7187 241.581 12.7812C244.303 14.8151 246.179 17.7943 247.21 21.7187C248.241 25.6432 248.757 30.4271 248.757 36.0703L233.976 36.0703L233.976 29.3672C233.976 27.7344 233.747 26.3737 233.288 25.2852C232.859 24.168 231.942 23.6094 230.538 23.6094C228.791 23.6094 227.631 24.1966 227.058 25.3711C226.514 26.5456 226.241 27.8346 226.241 29.2383L226.241 65.8906C226.241 67.9245 226.499 69.5859 227.015 70.875C227.559 72.1354 228.605 72.7656 230.152 72.7656C231.756 72.7656 232.816 72.1354 233.331 70.875C233.876 69.5859 234.148 67.8958 234.148 65.8047L234.148 55.0195L230.109 55.0195L230.109 41.957L248.585 41.957L248.585 86L242.527 86L239.948 79.6406C237.313 84.3385 233.159 86.6875 227.488 86.6875ZM254.347 93.9922L257.526 81.6602C254.06 77.9935 252.327 72.5651 252.327 65.375L252.327 29.4531C252.327 22.9505 253.917 18.0378 257.097 14.7148C260.305 11.3633 264.931 9.6875 270.976 9.6875C273.468 9.6875 275.731 9.97396 277.765 10.5469L280.472 0.0625L286.487 0.0625L283.136 13.168C287.461 16.4336 289.624 21.862 289.624 29.4531L289.624 65.375C289.624 72.1068 288.063 77.349 284.941 81.1016C281.818 84.8255 277.163 86.6875 270.976 86.6875C267.825 86.6875 265.046 86.1862 262.64 85.1836L260.362 93.9922L254.347 93.9922ZM271.105 72.7656C272.537 72.7656 273.468 72.1211 273.898 70.832C274.327 69.5143 274.542 67.9388 274.542 66.1055L274.542 29.1953C274.542 27.849 274.356 26.5885 273.984 25.4141C273.611 24.2109 272.68 23.6094 271.191 23.6094C269.73 23.6094 268.727 24.168 268.183 25.2852C267.667 26.3737 267.409 27.7201 267.409 29.3242L267.409 66.1914C267.409 68.168 267.638 69.7578 268.097 70.9609C268.555 72.1641 269.558 72.7656 271.105 72.7656ZM294.054 86L294.054 10.375L317.257 10.375C321.124 10.375 324.046 11.263 326.022 13.0391C327.999 14.7865 329.317 17.25 329.976 20.4297C330.663 23.5807 331.007 27.2904 331.007 31.5586C331.007 35.6836 330.477 38.9779 329.417 41.4414C328.386 43.9049 326.423 45.6094 323.53 46.5547C325.908 47.0417 327.569 48.2305 328.515 50.1211C329.489 51.9831 329.976 54.4036 329.976 57.3828L329.976 86L315.065 86L315.065 56.3945C315.065 54.1888 314.607 52.8281 313.69 52.3125C312.802 51.7682 311.356 51.4961 309.351 51.4961L309.351 86L294.054 86ZM309.436 38.3906L313.089 38.3906C315.18 38.3906 316.226 36.1133 316.226 31.5586C316.226 28.6081 315.996 26.6745 315.538 25.7578C315.08 24.8411 314.22 24.3828 312.96 24.3828L309.436 24.3828L309.436 38.3906ZM5.532 95.362C4.52 94.304 2.312 94.258 1.116 94.258L0.84 94.258L0.84 93.982L21.862 93.982L21.862 94.258L21.54 94.258C20.39 94.258 18.642 94.304 17.676 95.362C16.756 96.282 16.848 98.582 16.848 99.502L16.848 110.496L22.782 104.792C26.232 101.388 28.716 99.272 28.072 96.466C27.888 95.546 27.106 94.304 24.208 94.258L24.208 93.982L39.71 93.982L39.71 94.258C33.592 94.442 28.164 99.64 23.61 104.424L37.64 125.492C38.468 126.826 39.48 128.39 40.814 129.126C41.918 129.77 44.218 129.724 44.218 129.724L44.218 130L23.196 130L23.196 129.724C24.116 129.77 24.99 129.586 25.542 128.666C26.186 127.562 24.852 125.216 23.794 123.376L16.848 112.612L16.848 124.388C16.848 125.354 16.756 127.7 17.676 128.62C18.642 129.632 20.528 129.724 21.724 129.724L21.862 129.724L21.862 130L0.84 130L0.84 129.724L1.116 129.724C2.312 129.724 4.52 129.632 5.532 128.62C6.406 127.7 6.314 125.354 6.314 124.388L6.314 99.594C6.314 98.628 6.406 96.282 5.532 95.362ZM60.3396 120.708C60.3396 124.802 60.2476 126.504 62.4556 127.746C64.6176 128.942 69.9076 129.08 72.2076 127.792C75.7956 125.768 75.3816 122.686 75.3816 119.742L75.3816 104.01C75.3816 97.754 75.6576 94.258 69.5856 94.258L69.5856 93.982L81.5456 93.982L81.5456 94.258C75.4736 94.258 75.7496 97.754 75.7496 104.01L75.7496 119.926C75.7496 123.882 75.9336 126.228 71.5636 128.758C66.9176 131.426 58.3156 130.736 54.1296 128.436C49.4836 125.86 49.7596 122.318 49.7596 119.558L49.7596 99.594C49.7596 98.628 49.8976 96.282 48.9776 95.362C48.0116 94.304 45.8036 94.258 44.6076 94.258L44.2856 94.258L44.2856 93.982L65.8136 93.982L65.8136 94.258L65.5376 94.258C64.3416 94.258 62.1336 94.304 61.1216 95.362C60.2476 96.282 60.3396 98.628 60.3396 99.594L60.3396 120.708ZM82.3577 130L82.3577 129.724L82.6337 129.724C83.8297 129.724 86.0377 129.632 87.0497 128.62C87.9237 127.7 87.8317 125.354 87.8317 124.388L87.8317 99.594C87.8317 98.628 87.9237 96.282 87.0497 95.362C86.0377 94.304 83.8297 94.258 82.6337 94.258L82.3577 94.258L82.3577 93.982L103.886 93.982L103.886 94.258L103.564 94.258C102.414 94.258 100.16 94.304 99.1937 95.362C98.3197 96.282 98.4117 98.628 98.4117 99.594L98.4117 124.388C98.4117 126.596 98.3197 128.85 99.2857 129.494C99.7917 129.862 103.702 129.724 105.312 128.942C110.234 126.78 113.224 123.606 113.638 114.038L113.96 114.038L113.96 130L82.3577 130ZM131.838 124.388C131.838 125.354 131.746 127.7 132.62 128.62C133.586 129.632 135.84 129.724 136.99 129.724L137.312 129.724L137.312 130L115.784 130L115.784 129.724L116.06 129.724C117.256 129.724 119.464 129.632 120.476 128.62C121.35 127.7 121.258 125.354 121.258 124.388L121.258 94.258C117.486 94.396 114.312 97.57 112.288 100.974C110.632 103.688 110.126 106.08 110.126 109.024L109.85 109.024L109.85 93.982L143.246 93.982L143.246 109.024L142.97 109.024C142.97 106.08 142.418 103.688 140.808 100.974C138.784 97.57 135.564 94.396 131.838 94.258L131.838 124.388ZM159.475 120.708C159.475 124.802 159.383 126.504 161.591 127.746C163.753 128.942 169.043 129.08 171.343 127.792C174.931 125.768 174.517 122.686 174.517 119.742L174.517 104.01C174.517 97.754 174.793 94.258 168.721 94.258L168.721 93.982L180.681 93.982L180.681 94.258C174.609 94.258 174.885 97.754 174.885 104.01L174.885 119.926C174.885 123.882 175.069 126.228 170.699 128.758C166.053 131.426 157.451 130.736 153.265 128.436C148.619 125.86 148.895 122.318 148.895 119.558L148.895 99.594C148.895 98.628 149.033 96.282 148.113 95.362C147.147 94.304 144.939 94.258 143.743 94.258L143.421 94.258L143.421 93.982L164.949 93.982L164.949 94.258L164.673 94.258C163.477 94.258 161.269 94.304 160.257 95.362C159.383 96.282 159.475 98.628 159.475 99.594L159.475 120.708ZM197.041 110.956C198.559 110.91 200.721 111.094 202.193 110.634C203.435 110.266 204.125 109.392 204.539 108.104C204.953 106.724 205.045 97.892 203.665 96.006C202.239 94.028 200.031 94.258 197.041 94.258L197.041 110.956ZM197.041 111.232L197.041 124.388C197.041 125.354 196.949 127.7 197.823 128.62C198.835 129.632 200.261 129.724 201.411 129.724L201.963 129.724L201.963 130L180.987 130L180.987 129.724L181.309 129.724C182.459 129.724 184.713 129.632 185.679 128.62C186.599 127.7 186.461 125.354 186.461 124.388L186.461 99.594C186.461 98.628 186.599 96.282 185.679 95.362C184.713 94.304 182.459 94.258 181.309 94.258L180.987 94.258L180.987 93.982L199.203 93.982C203.113 93.982 210.473 94.12 213.785 98.858C215.165 100.744 215.349 102.952 214.659 104.792C212.911 109.438 207.391 110.404 204.539 111.186C206.379 111.646 209.599 112.198 211.807 113.716C215.211 116.062 214.843 120.34 214.843 123.192L214.843 125.538C214.843 126.504 214.751 128.206 215.901 128.344C216.775 128.39 217.235 127.884 217.741 126.918C217.971 126.504 218.201 125.722 218.431 124.848C218.661 123.882 218.983 120.708 218.707 118.868L218.983 118.868C219.167 119.834 219.167 121.72 218.891 123.698C218.753 124.802 218.569 125.906 218.109 126.826C217.051 129.31 215.533 130 213.739 130.276C211.347 130.69 208.357 130.506 205.965 128.758C203.895 127.24 203.665 124.296 203.895 120.34C203.941 119.604 203.987 117.948 203.987 117.948C204.079 116.016 203.987 113.348 202.883 112.198C201.687 110.956 199.111 111.278 197.041 111.232ZM231 95.362C230.034 94.304 227.78 94.258 226.63 94.258L226.308 94.258L226.308 93.982L243.144 93.982L256.53 120.11L256.53 104.01C256.53 97.754 256.76 94.258 250.688 94.258L250.688 93.982L262.694 93.982L262.694 94.258C256.622 94.258 256.852 97.754 256.852 104.01L256.852 130L248.48 130L232.15 98.352L232.15 119.972C232.15 126.182 231.874 129.724 237.946 129.724L237.946 130L225.986 130L225.986 129.724C232.058 129.724 231.782 126.182 231.782 119.972L231.782 99.594C231.782 98.628 231.874 96.282 231 95.362ZM267.448 119.42L275.866 93.982L283.502 93.982L294.266 126.596C295.094 129.08 296.014 129.632 298.682 129.724L298.682 130L278.212 130L278.212 129.724L280.19 129.724C281.524 129.724 282.076 129.494 282.398 129.218C283.502 128.252 282.628 126.136 282.03 124.112L279.132 115.05L269.242 115.05C267.77 119.42 266.022 124.296 268.23 127.516C269.702 129.724 272.232 129.724 274.164 129.724L274.164 130L258.202 130L258.202 129.724C264.09 129.448 265.654 124.756 267.448 119.42ZM269.334 114.728L278.994 114.728L274.394 99.456L269.334 114.728ZM315.958 124.388C315.958 125.354 315.866 127.7 316.74 128.62C317.706 129.632 319.96 129.724 321.11 129.724L321.432 129.724L321.432 130L299.904 130L299.904 129.724L300.18 129.724C301.376 129.724 303.584 129.632 304.596 128.62C305.47 127.7 305.378 125.354 305.378 124.388L305.378 94.258C301.606 94.396 298.432 97.57 296.408 100.974C294.752 103.688 294.246 106.08 294.246 109.024L293.97 109.024L293.97 93.982L327.366 93.982L327.366 109.024L327.09 109.024C327.09 106.08 326.538 103.688 324.928 100.974C322.904 97.57 319.684 94.396 315.958 94.258L315.958 124.388Z" fill="#28282B"/>
</svg>
