<?xml version="1.0" encoding="UTF-8"?>
<svg id="Layer_1" xmlns="http://www.w3.org/2000/svg" version="1.1" viewBox="0 0 415 16.8">
  <!-- Generator: Adobe Illustrator 29.2.1, SVG Export Plug-In . SVG Version: 2.1.0 Build 116)  -->
  <defs>
    <style>
      .st0 {
        fill: #e2e2e2;
      }
    </style>
  </defs>
  <path class="st0" d="M393.5,0c-12.4,16.8-29.9,17.4-42,0-5.6,6.7-11.6,13.1-21,13-3.2-1-6.5-1.1-9.8-3.2-2.7-1.7-8.7-9.9-10.2-9.6-11,16.8-30.3,16.9-41-.2-3.3,1.8-4.9,5.4-8,7.9C249,17.9,235.6,12,227.5,0c-12.4,16.8-29.9,17.4-42,0-5.2,6.2-10.8,12.3-19.2,12.9-3.1-.9-6.4-1.1-9.6-3.1-2.7-1.7-8.7-9.9-10.2-9.6-11,16.8-30.3,16.9-41-.2-3.3,1.8-4.9,5.4-8,7.9C85,17.9,71.6,12,63.5,0c-12.4,16.8-29.9,17.4-42,0C15.8,6.8,9.7,13.4,0,13v3c8.2,2.2,16.3-4.2,21.5-10,11.7,14.4,30.2,14,42,0,11.2,14,30.3,14.6,41,0h1.5c0,1.2.6,2.2,1.5,3,12.9,11.3,28.2,10.4,39-3,3.6,3.8,8.5,7.8,13.5,9.5,1.4.5,7.4,2.2,9.4.8,6.3-.9,12.1-5.8,16.1-10.3,11.7,14.4,30.2,14,42,0,11.2,14,30.3,14.6,41,0h1.5c0,1.2.6,2.2,1.5,3,12.9,11.3,28.2,10.4,39-3,3.6,3.8,8.5,7.8,13.5,9.5,1.3.4,6.9,2,9.1.9,7.1.1,13.9-5.4,18.4-10.4,11.7,14.4,30.2,14,42,0,5.8,7.3,13.7,10.9,21.5,10.7v-3.7C406.7,13.3,398.9,8,393.5,0Z"/>
</svg>