<svg width="207" height="54" viewBox="0 0 207 54" fill="none" xmlns="http://www.w3.org/2000/svg">
<path d="M80.3271 34.0233L80.3271 6.52325L85.7959 6.52325L85.7959 16.3514L88.3896 16.3514L88.3896 6.52325L93.8584 6.52325L93.8584 34.0233L88.3896 34.0233L88.3896 21.5545L85.7959 21.5545L85.7959 34.0233L80.3271 34.0233ZM95.6879 34.0233L95.6879 6.52325L106.688 6.52325L106.688 11.8358L101.282 11.8358L101.282 17.1951L106.469 17.1951L106.469 22.367L101.282 22.367L101.282 28.6639L107.047 28.6639L107.047 34.0233L95.6879 34.0233ZM108.267 34.0233L108.267 6.52325L113.767 6.52325L113.767 29.3358L119.424 29.3358L119.424 34.0233L108.267 34.0233ZM126.909 34.2733C124.399 34.2733 122.586 33.6483 121.472 32.3983C120.368 31.1483 119.816 29.1587 119.816 26.4295L119.816 23.742L125.253 23.742L125.253 27.1795C125.253 27.8149 125.347 28.3149 125.534 28.6795C125.732 29.0337 126.071 29.2108 126.55 29.2108C127.05 29.2108 127.394 29.0649 127.581 28.7733C127.779 28.4816 127.878 28.0024 127.878 27.3358C127.878 26.492 127.795 25.7889 127.628 25.2264C127.461 24.6535 127.17 24.1118 126.753 23.6014C126.347 23.0805 125.779 22.4764 125.05 21.7889L122.581 19.4451C120.738 17.7055 119.816 15.716 119.816 13.4764C119.816 11.1326 120.357 9.34617 121.441 8.117C122.534 6.88784 124.113 6.27325 126.175 6.27325C128.696 6.27325 130.482 6.94513 131.534 8.28888C132.597 9.63263 133.128 11.6743 133.128 14.4139L127.534 14.4139L127.534 12.5233C127.534 12.1483 127.425 11.8566 127.206 11.6483C126.998 11.4399 126.711 11.3358 126.347 11.3358C125.909 11.3358 125.586 11.4608 125.378 11.7108C125.18 11.9503 125.081 12.2628 125.081 12.6483C125.081 13.0337 125.185 13.4503 125.394 13.8983C125.602 14.3462 126.014 14.8618 126.628 15.4451L129.8 18.492C130.435 19.0962 131.019 19.7368 131.55 20.4139C132.081 21.0805 132.508 21.8618 132.831 22.7576C133.154 23.643 133.316 24.7264 133.316 26.0076C133.316 28.591 132.836 30.617 131.878 32.0858C130.93 33.5441 129.274 34.2733 126.909 34.2733ZM134.301 34.0233L134.301 6.52325L139.614 6.52325L139.614 34.0233L134.301 34.0233ZM141.193 34.0233L141.193 6.52325L146.85 6.52325L149.381 19.6951L149.381 6.52325L154.693 6.52325L154.693 34.0233L149.318 34.0233L146.568 20.2733L146.568 34.0233L141.193 34.0233ZM162.195 34.2733C158.268 34.2733 156.304 31.4608 156.304 25.8358L156.304 13.9764C156.304 8.84096 158.554 6.27325 163.054 6.27325C164.908 6.27325 166.33 6.64825 167.32 7.39825C168.309 8.13784 168.992 9.22117 169.367 10.6483C169.742 12.0753 169.929 13.8149 169.929 15.867L164.554 15.867L164.554 13.4295C164.554 12.8358 164.471 12.341 164.304 11.9451C164.148 11.5389 163.815 11.3358 163.304 11.3358C162.669 11.3358 162.247 11.5493 162.039 11.9764C161.841 12.4035 161.742 12.8722 161.742 13.3826L161.742 26.7108C161.742 27.4503 161.835 28.0545 162.023 28.5233C162.221 28.9816 162.601 29.2108 163.164 29.2108C163.747 29.2108 164.132 28.9816 164.32 28.5233C164.518 28.0545 164.617 27.4399 164.617 26.6795L164.617 22.7576L163.148 22.7576L163.148 18.0076L169.867 18.0076L169.867 34.0233L167.664 34.0233L166.726 31.7108C165.768 33.4191 164.257 34.2733 162.195 34.2733ZM171.962 36.9295L173.118 32.4451C171.858 31.1118 171.227 29.1378 171.227 26.5233L171.227 13.4608C171.227 11.0962 171.806 9.30971 172.962 8.10138C174.128 6.88263 175.811 6.27325 178.009 6.27325C178.915 6.27325 179.738 6.37742 180.477 6.58575L181.462 2.77325L183.649 2.77325L182.431 7.53888C184.003 8.72638 184.79 10.7003 184.79 13.4608L184.79 26.5233C184.79 28.9712 184.222 30.8774 183.087 32.242C181.951 33.5962 180.259 34.2733 178.009 34.2733C176.863 34.2733 175.852 34.091 174.977 33.7264L174.149 36.9295L171.962 36.9295ZM178.056 29.2108C178.576 29.2108 178.915 28.9764 179.071 28.5076C179.227 28.0285 179.306 27.4555 179.306 26.7889L179.306 13.367C179.306 12.8774 179.238 12.4191 179.102 11.992C178.967 11.5545 178.628 11.3358 178.087 11.3358C177.556 11.3358 177.191 11.5389 176.993 11.9451C176.806 12.341 176.712 12.8305 176.712 13.4139L176.712 26.8201C176.712 27.5389 176.795 28.117 176.962 28.5545C177.128 28.992 177.493 29.2108 178.056 29.2108ZM186.401 34.0233L186.401 6.52325L194.838 6.52325C196.244 6.52325 197.307 6.84617 198.026 7.492C198.744 8.12742 199.224 9.02325 199.463 10.1795C199.713 11.3253 199.838 12.6743 199.838 14.2264C199.838 15.7264 199.645 16.9243 199.26 17.8201C198.885 18.716 198.171 19.3358 197.119 19.6795C197.984 19.8566 198.588 20.2889 198.932 20.9764C199.286 21.6535 199.463 22.5337 199.463 23.617L199.463 34.0233L194.041 34.0233L194.041 23.2576C194.041 22.4555 193.875 21.9608 193.541 21.7733C193.218 21.5753 192.692 21.4764 191.963 21.4764L191.963 34.0233L186.401 34.0233ZM191.994 16.7108L193.323 16.7108C194.083 16.7108 194.463 15.8826 194.463 14.2264C194.463 13.1535 194.38 12.4503 194.213 12.117C194.046 11.7837 193.734 11.617 193.276 11.617L191.994 11.617L191.994 16.7108ZM81.6644 37.4693C81.2684 37.0553 80.4044 37.0373 79.9364 37.0373L79.8284 37.0373L79.8284 36.9293L88.0544 36.9293L88.0544 37.0373L87.9284 37.0373C87.4784 37.0373 86.7944 37.0553 86.4164 37.4693C86.0564 37.8293 86.0924 38.7293 86.0924 39.0893L86.0924 43.3913L88.4144 41.1593C89.7644 39.8273 90.7364 38.9993 90.4844 37.9013C90.4124 37.5413 90.1064 37.0553 88.9724 37.0373L88.9724 36.9293L95.0384 36.9293L95.0384 37.0373C92.6444 37.1093 90.5204 39.1433 88.7384 41.0153L94.2284 49.2593C94.5524 49.7813 94.9484 50.3933 95.4704 50.6813C95.9024 50.9333 96.8024 50.9153 96.8024 50.9153L96.8024 51.0233L88.5764 51.0233L88.5764 50.9153C88.9364 50.9333 89.2784 50.8613 89.4944 50.5013C89.7464 50.0693 89.2244 49.1513 88.8104 48.4313L86.0924 44.2193L86.0924 48.8273C86.0924 49.2053 86.0564 50.1233 86.4164 50.4833C86.7944 50.8793 87.5324 50.9153 88.0004 50.9153L88.0544 50.9153L88.0544 51.0233L79.8284 51.0233L79.8284 50.9153L79.9364 50.9153C80.4044 50.9153 81.2684 50.8793 81.6644 50.4833C82.0064 50.1233 81.9704 49.2053 81.9704 48.8273L81.9704 39.1253C81.9704 38.7473 82.0064 37.8293 81.6644 37.4693ZM103.111 47.3873C103.111 48.9893 103.075 49.6553 103.939 50.1413C104.785 50.6093 106.855 50.6633 107.755 50.1593C109.159 49.3673 108.997 48.1613 108.997 47.0093L108.997 40.8533C108.997 38.4053 109.105 37.0373 106.729 37.0373L106.729 36.9293L111.409 36.9293L111.409 37.0373C109.033 37.0373 109.141 38.4053 109.141 40.8533L109.141 47.0813C109.141 48.6293 109.213 49.5473 107.503 50.5373C105.685 51.5813 102.319 51.3113 100.681 50.4113C98.8628 49.4033 98.9708 48.0173 98.9708 46.9373L98.9708 39.1253C98.9708 38.7473 99.0248 37.8293 98.6648 37.4693C98.2868 37.0553 97.4228 37.0373 96.9548 37.0373L96.8288 37.0373L96.8288 36.9293L105.253 36.9293L105.253 37.0373L105.145 37.0373C104.677 37.0373 103.813 37.0553 103.417 37.4693C103.075 37.8293 103.111 38.7473 103.111 39.1253L103.111 47.3873ZM111.727 51.0233L111.727 50.9153L111.835 50.9153C112.303 50.9153 113.167 50.8793 113.563 50.4833C113.905 50.1233 113.869 49.2053 113.869 48.8273L113.869 39.1253C113.869 38.7473 113.905 37.8293 113.563 37.4693C113.167 37.0553 112.303 37.0373 111.835 37.0373L111.727 37.0373L111.727 36.9293L120.151 36.9293L120.151 37.0373L120.025 37.0373C119.575 37.0373 118.693 37.0553 118.315 37.4693C117.973 37.8293 118.009 38.7473 118.009 39.1253L118.009 48.8273C118.009 49.6913 117.973 50.5733 118.351 50.8253C118.549 50.9693 120.079 50.9153 120.709 50.6093C122.635 49.7633 123.805 48.5213 123.967 44.7773L124.093 44.7773L124.093 51.0233L111.727 51.0233ZM131.088 48.8273C131.088 49.2053 131.052 50.1233 131.394 50.4833C131.772 50.8793 132.654 50.9153 133.104 50.9153L133.23 50.9153L133.23 51.0233L124.806 51.0233L124.806 50.9153L124.914 50.9153C125.382 50.9153 126.246 50.8793 126.642 50.4833C126.984 50.1233 126.948 49.2053 126.948 48.8273L126.948 37.0373C125.472 37.0913 124.23 38.3333 123.438 39.6653C122.79 40.7273 122.592 41.6633 122.592 42.8153L122.484 42.8153L122.484 36.9293L135.552 36.9293L135.552 42.8153L135.444 42.8153C135.444 41.6633 135.228 40.7273 134.598 39.6653C133.806 38.3333 132.546 37.0913 131.088 37.0373L131.088 48.8273ZM141.903 47.3873C141.903 48.9893 141.867 49.6553 142.731 50.1413C143.577 50.6093 145.647 50.6633 146.547 50.1593C147.951 49.3673 147.789 48.1613 147.789 47.0093L147.789 40.8533C147.789 38.4053 147.897 37.0373 145.521 37.0373L145.521 36.9293L150.201 36.9293L150.201 37.0373C147.825 37.0373 147.933 38.4053 147.933 40.8533L147.933 47.0813C147.933 48.6293 148.005 49.5473 146.295 50.5373C144.477 51.5813 141.111 51.3113 139.473 50.4113C137.655 49.4033 137.763 48.0173 137.763 46.9373L137.763 39.1253C137.763 38.7473 137.817 37.8293 137.457 37.4693C137.079 37.0553 136.215 37.0373 135.747 37.0373L135.621 37.0373L135.621 36.9293L144.045 36.9293L144.045 37.0373L143.937 37.0373C143.469 37.0373 142.605 37.0553 142.209 37.4693C141.867 37.8293 141.903 38.7473 141.903 39.1253L141.903 47.3873ZM156.603 43.5713C157.197 43.5533 158.043 43.6253 158.619 43.4453C159.105 43.3013 159.375 42.9593 159.537 42.4553C159.699 41.9153 159.735 38.4593 159.195 37.7213C158.637 36.9473 157.773 37.0373 156.603 37.0373L156.603 43.5713ZM156.603 43.6793L156.603 48.8273C156.603 49.2053 156.567 50.1233 156.909 50.4833C157.305 50.8793 157.863 50.9153 158.313 50.9153L158.529 50.9153L158.529 51.0233L150.321 51.0233L150.321 50.9153L150.447 50.9153C150.897 50.9153 151.779 50.8793 152.157 50.4833C152.517 50.1233 152.463 49.2053 152.463 48.8273L152.463 39.1253C152.463 38.7473 152.517 37.8293 152.157 37.4693C151.779 37.0553 150.897 37.0373 150.447 37.0373L150.321 37.0373L150.321 36.9293L157.449 36.9293C158.979 36.9293 161.859 36.9833 163.155 38.8373C163.695 39.5753 163.767 40.4393 163.497 41.1593C162.813 42.9773 160.653 43.3553 159.537 43.6613C160.257 43.8413 161.517 44.0573 162.381 44.6513C163.713 45.5693 163.569 47.2433 163.569 48.3593L163.569 49.2773C163.569 49.6553 163.533 50.3213 163.983 50.3753C164.325 50.3933 164.505 50.1953 164.703 49.8173C164.793 49.6553 164.883 49.3493 164.973 49.0073C165.063 48.6293 165.189 47.3873 165.081 46.6673L165.189 46.6673C165.261 47.0453 165.261 47.7833 165.153 48.5573C165.099 48.9893 165.027 49.4213 164.847 49.7813C164.433 50.7533 163.839 51.0233 163.137 51.1313C162.201 51.2933 161.031 51.2213 160.095 50.5373C159.285 49.9433 159.195 48.7913 159.285 47.2433C159.303 46.9553 159.321 46.3073 159.321 46.3073C159.357 45.5513 159.321 44.5073 158.889 44.0573C158.421 43.5713 157.413 43.6973 156.603 43.6793ZM167.249 37.4693C166.871 37.0553 165.989 37.0373 165.539 37.0373L165.413 37.0373L165.413 36.9293L172.001 36.9293L177.239 47.1533L177.239 40.8533C177.239 38.4053 177.329 37.0373 174.953 37.0373L174.953 36.9293L179.651 36.9293L179.651 37.0373C177.275 37.0373 177.365 38.4053 177.365 40.8533L177.365 51.0233L174.089 51.0233L167.699 38.6393L167.699 47.0993C167.699 49.5293 167.591 50.9153 169.967 50.9153L169.967 51.0233L165.287 51.0233L165.287 50.9153C167.663 50.9153 167.555 49.5293 167.555 47.0993L167.555 39.1253C167.555 38.7473 167.591 37.8293 167.249 37.4693ZM181.512 46.8833L184.806 36.9293L187.794 36.9293L192.006 49.6913C192.33 50.6633 192.69 50.8793 193.734 50.9153L193.734 51.0233L185.724 51.0233L185.724 50.9153L186.498 50.9153C187.02 50.9153 187.236 50.8253 187.362 50.7173C187.794 50.3393 187.452 49.5113 187.218 48.7193L186.084 45.1733L182.214 45.1733C181.638 46.8833 180.954 48.7913 181.818 50.0513C182.394 50.9153 183.384 50.9153 184.14 50.9153L184.14 51.0233L177.894 51.0233L177.894 50.9153C180.198 50.8073 180.81 48.9713 181.512 46.8833ZM182.25 45.0473L186.03 45.0473L184.23 39.0713L182.25 45.0473ZM200.494 48.8273C200.494 49.2053 200.458 50.1233 200.8 50.4833C201.178 50.8793 202.06 50.9153 202.51 50.9153L202.636 50.9153L202.636 51.0233L194.212 51.0233L194.212 50.9153L194.32 50.9153C194.788 50.9153 195.652 50.8793 196.048 50.4833C196.39 50.1233 196.354 49.2053 196.354 48.8273L196.354 37.0373C194.878 37.0913 193.636 38.3333 192.844 39.6653C192.196 40.7273 191.998 41.6633 191.998 42.8153L191.89 42.8153L191.89 36.9293L204.958 36.9293L204.958 42.8153L204.85 42.8153C204.85 41.6633 204.634 40.7273 204.004 39.6653C203.212 38.3333 201.952 37.0913 200.494 37.0373L200.494 48.8273Z" fill="#EAE1D4"/>
<g clip-path="url(#clip0_842_237)">
<path d="M10.5543 43.6873L10.5542 43.6873C3.52436 37.537 -0.2 29.6201 -0.2 20.7987C-0.2 16.4035 0.723749 12.1344 2.55118 8.10665C3.00743 7.0974 4.37344 5.04076 5.72236 3.31698L5.72238 3.31695C7.11278 1.54075 8.04394 0.655467 8.68667 0.218838C9.00983 -0.000695325 9.26562 -0.110672 9.47499 -0.161066C9.68691 -0.212072 9.83981 -0.198868 9.94087 -0.190141L9.94146 -0.190089L9.94172 -0.190067L9.92452 0.00919167L10.5543 43.6873ZM10.5543 43.6873C17.1957 49.4929 26.3189 53.18 36.2472 54.0769C37.1292 54.1587 38.0138 54.198 38.9041 54.2001L38.9074 54.2032H38.9854C49.4769 54.2032 60.3636 48.942 65.6582 41.0419L65.6582 41.0419M10.5543 43.6873L65.6582 41.0419M25.8652 35.6805L25.8652 35.6805C27.166 36.0289 28.461 35.6192 29.7714 34.7969C31.0833 33.9735 32.3775 32.7578 33.6682 31.5438L33.6683 31.5437L33.6839 31.529C34.8465 30.4374 35.9933 29.3607 37.1473 28.5975C38.3075 27.8301 39.5026 27.3606 40.7561 27.5282C42.3012 27.7346 43.6138 28.8719 44.7849 30.9115C47.2839 35.2619 49.3173 37.8212 50.9369 39.2669C52.5566 40.7125 53.7414 41.0266 54.5534 40.938L54.5536 40.938C55.3537 40.8514 56.0921 40.3622 56.7778 39.5644C57.4629 38.7674 58.0786 37.6811 58.6337 36.443C59.7437 33.9671 60.5916 30.9293 61.271 28.4947C61.8586 26.3851 62.3 24.8443 62.7455 23.8102C63.186 22.7877 63.6642 22.1777 64.373 22.0742L25.8652 35.6805ZM25.8652 35.6805C24.6769 35.3627 23.4682 34.4347 22.2403 32.842C21.0141 31.2515 19.7832 29.0168 18.5455 26.1203C16.0702 20.3279 13.5808 11.9217 11.0436 0.813607L25.8652 35.6805ZM65.6582 41.0419C69.709 34.9929 69.8037 28.5346 65.8974 22.8817C65.6426 22.5131 65.3689 22.2925 65.0991 22.1738M65.6582 41.0419L65.0991 22.1738M9.49098 1.63229C12.9062 16.488 15.9694 25.1241 18.623 30.1698C21.2958 35.252 23.5688 36.7208 25.3939 37.2085C27.2176 37.6985 28.9186 37.1862 30.4895 36.2475C32.0497 35.3151 33.5055 33.9475 34.8523 32.6822L34.8694 32.6662L34.8695 32.6661L34.8907 32.6463C35.9388 31.6627 36.9432 30.7202 37.8967 30.0486C38.8619 29.3687 39.7325 28.9978 40.5109 29.1022L9.49098 1.63229ZM9.49098 1.63229C9.21792 1.84881 8.86576 2.1939 8.46541 2.63258C7.94592 3.2018 7.36042 3.91151 6.78605 4.65895C5.63355 6.1587 4.54202 7.78924 4.11619 8.7291L4.11618 8.72912C2.3805 12.5588 1.50158 16.6162 1.50158 20.7957C1.50158 37.3016 16.1442 50.6571 36.4101 52.489C47.1037 53.4546 58.7952 48.271 64.2131 40.1886C67.8736 34.7236 67.9856 28.9477 64.5594 23.8806C64.4847 24.0132 64.4025 24.1863 64.3146 24.3975C64.167 24.752 64.0111 25.1932 63.852 25.6848C63.5352 26.6637 63.2099 27.8289 62.9161 28.8814L62.9123 28.895L62.9076 28.9121C62.1014 31.8009 61.1909 35.0635 59.9329 37.664C58.6784 40.2573 57.0409 42.2709 54.743 42.5192M9.49098 1.63229L43.4564 31.564M54.743 42.5192L54.7215 42.3203L54.7431 42.5192C54.743 42.5192 54.743 42.5192 54.743 42.5192ZM54.743 42.5192C53.045 42.7033 51.2612 41.865 49.3742 40.0636C47.485 38.26 45.4636 35.4644 43.2829 31.6635M43.2829 31.6635C43.2829 31.6635 43.2829 31.6636 43.2829 31.6636L43.4564 31.564M43.2829 31.6635C42.3518 30.0422 41.4116 29.2236 40.511 29.1023L43.4564 31.564M43.2829 31.6635L43.4564 31.564M65.0991 22.1738C64.8293 22.0552 64.5766 22.0443 64.3731 22.0742L65.0991 22.1738Z" fill="#EAE1D4" stroke="#EAE1D4" stroke-width="0.4"/>
<path d="M49.5988 27.7874L49.7307 27.8443L49.8267 27.7374L60.0148 16.3982L60.3492 16.0261L59.8504 16.0652L42.4004 17.4321L22.282 14.22L21.7813 14.1401L22.0926 14.5403L30.9498 25.9273L31.0252 26.0242L31.1457 26.0009L41.0259 24.0909L49.5988 27.7874ZM41.2871 22.4469L41.0079 22.3265V22.4685L31.7564 24.2579L25.6254 16.3746L42.3055 19.0383L42.329 19.0421L42.3527 19.0402L56.4086 17.9377L49.264 25.8868L41.2871 22.4469Z" fill="#EAE1D4" stroke="#EAE1D4" stroke-width="0.4"/>
<path d="M40.9615 18.8231L41.0571 18.8384L41.0761 18.8209L47.5867 18.6791L47.8875 18.6726L47.765 18.3977L42.6596 6.945L42.5108 6.61136L42.3099 6.9164L35.2553 17.6249L35.085 17.8836L35.3908 17.9325L40.9615 18.8231ZM37.8604 16.708L42.2183 10.0955L45.3541 17.135L41.1045 17.2268L37.8604 16.708Z" fill="#EAE1D4" stroke="#EAE1D4" stroke-width="0.4"/>
<path d="M58.22 17.7675L58.4108 17.8015L58.4508 17.6118L58.6981 16.4372L58.7406 16.2354L58.5375 16.1991L45.7693 13.9224L42.6594 6.94797L42.5106 6.61439L42.3097 6.91939L37.9618 13.5191L23.6461 14.46L23.4444 14.4733L23.4598 14.6748L23.5509 15.8673L23.5659 16.0646L23.7634 16.0517L38.8519 15.0594L38.9511 15.0529L39.0058 14.9698L42.2183 10.0925L44.51 15.2342L44.5531 15.331L44.6575 15.3496L58.22 17.7675Z" fill="#EAE1D4" stroke="#EAE1D4" stroke-width="0.4"/>
<path d="M48.8629 27.3982L48.9899 27.531L49.1329 27.4158L50.1124 26.6267L50.282 26.4901L50.1314 26.3327L41.2644 17.0647L41.1428 16.9376L41.0012 17.042L30.8652 24.5138L30.6901 24.6429L30.8334 24.8066L31.6502 25.739L31.7713 25.8774L31.9193 25.7682L40.9408 19.1152L48.8629 27.3982Z" fill="#EAE1D4" stroke="#EAE1D4" stroke-width="0.4"/>
<path d="M40.1973 17.9254L40.1702 18.1236L40.3689 18.1465L41.6604 18.2953L41.8591 18.3182L41.8861 18.12L43.2073 8.44664L43.2343 8.24848L43.0357 8.22559L41.7442 8.07679L41.5455 8.0539L41.5185 8.25206L40.1973 17.9254Z" fill="#EAE1D4" stroke="#EAE1D4" stroke-width="0.4"/>
</g>
<defs>
<clipPath id="clip0_842_237">
<rect width="68.5605" height="54" fill="white"/>
</clipPath>
</defs>
</svg>
